<?xml version="1.0" encoding="utf-8"?>
<svg xmlns="http://www.w3.org/2000/svg" xmlns:xlink="http://www.w3.org/1999/xlink" width="600" height="400" viewBox="0 0 2400 1600">
<defs>
  <clipPath id="clip890">
    <rect x="0" y="0" width="2400" height="1600"/>
  </clipPath>
</defs>
<path clip-path="url(#clip890)" d="M0 1600 L2400 1600 L2400 0 L0 0  Z" fill="#ffffff" fill-rule="evenodd" fill-opacity="1"/>
<defs>
  <clipPath id="clip891">
    <rect x="480" y="0" width="1681" height="1600"/>
  </clipPath>
</defs>
<path clip-path="url(#clip890)" d="M220.19 1423.18 L2352.76 1423.18 L2352.76 47.2441 L220.19 47.2441  Z" fill="#ffffff" fill-rule="evenodd" fill-opacity="1"/>
<defs>
  <clipPath id="clip892">
    <rect x="220" y="47" width="2134" height="1377"/>
  </clipPath>
</defs>
<polyline clip-path="url(#clip892)" style="stroke:#000000; stroke-linecap:round; stroke-linejoin:round; stroke-width:2; stroke-opacity:0.1; fill:none" points="671.74,1423.18 671.74,47.2441 "/>
<polyline clip-path="url(#clip892)" style="stroke:#000000; stroke-linecap:round; stroke-linejoin:round; stroke-width:2; stroke-opacity:0.1; fill:none" points="1230.59,1423.18 1230.59,47.2441 "/>
<polyline clip-path="url(#clip892)" style="stroke:#000000; stroke-linecap:round; stroke-linejoin:round; stroke-width:2; stroke-opacity:0.1; fill:none" points="1789.44,1423.18 1789.44,47.2441 "/>
<polyline clip-path="url(#clip892)" style="stroke:#000000; stroke-linecap:round; stroke-linejoin:round; stroke-width:2; stroke-opacity:0.1; fill:none" points="2348.29,1423.18 2348.29,47.2441 "/>
<polyline clip-path="url(#clip890)" style="stroke:#000000; stroke-linecap:round; stroke-linejoin:round; stroke-width:4; stroke-opacity:1; fill:none" points="220.19,1423.18 2352.76,1423.18 "/>
<polyline clip-path="url(#clip890)" style="stroke:#000000; stroke-linecap:round; stroke-linejoin:round; stroke-width:4; stroke-opacity:1; fill:none" points="671.74,1423.18 671.74,1404.28 "/>
<polyline clip-path="url(#clip890)" style="stroke:#000000; stroke-linecap:round; stroke-linejoin:round; stroke-width:4; stroke-opacity:1; fill:none" points="1230.59,1423.18 1230.59,1404.28 "/>
<polyline clip-path="url(#clip890)" style="stroke:#000000; stroke-linecap:round; stroke-linejoin:round; stroke-width:4; stroke-opacity:1; fill:none" points="1789.44,1423.18 1789.44,1404.28 "/>
<polyline clip-path="url(#clip890)" style="stroke:#000000; stroke-linecap:round; stroke-linejoin:round; stroke-width:4; stroke-opacity:1; fill:none" points="2348.29,1423.18 2348.29,1404.28 "/>
<path clip-path="url(#clip890)" d="M662.018 1451.02 L680.374 1451.02 L680.374 1454.96 L666.3 1454.96 L666.3 1463.43 Q667.319 1463.08 668.337 1462.92 Q669.356 1462.73 670.374 1462.73 Q676.161 1462.73 679.541 1465.9 Q682.92 1469.08 682.92 1474.49 Q682.92 1480.07 679.448 1483.17 Q675.976 1486.25 669.657 1486.25 Q667.481 1486.25 665.212 1485.88 Q662.967 1485.51 660.559 1484.77 L660.559 1480.07 Q662.643 1481.2 664.865 1481.76 Q667.087 1482.32 669.564 1482.32 Q673.569 1482.32 675.907 1480.21 Q678.244 1478.1 678.244 1474.49 Q678.244 1470.88 675.907 1468.77 Q673.569 1466.67 669.564 1466.67 Q667.689 1466.67 665.814 1467.08 Q663.962 1467.5 662.018 1468.38 L662.018 1451.02 Z" fill="#000000" fill-rule="nonzero" fill-opacity="1" /><path clip-path="url(#clip890)" d="M1230.99 1466.44 Q1227.85 1466.44 1225.99 1468.59 Q1224.16 1470.74 1224.16 1474.49 Q1224.16 1478.22 1225.99 1480.39 Q1227.85 1482.55 1230.99 1482.55 Q1234.14 1482.55 1235.97 1480.39 Q1237.82 1478.22 1237.82 1474.49 Q1237.82 1470.74 1235.97 1468.59 Q1234.14 1466.44 1230.99 1466.44 M1240.28 1451.78 L1240.28 1456.04 Q1238.52 1455.21 1236.71 1454.77 Q1234.93 1454.33 1233.17 1454.33 Q1228.54 1454.33 1226.09 1457.45 Q1223.66 1460.58 1223.31 1466.9 Q1224.67 1464.89 1226.73 1463.82 Q1228.79 1462.73 1231.27 1462.73 Q1236.48 1462.73 1239.49 1465.9 Q1242.52 1469.05 1242.52 1474.49 Q1242.52 1479.82 1239.37 1483.03 Q1236.22 1486.25 1230.99 1486.25 Q1225 1486.25 1221.83 1481.67 Q1218.66 1477.06 1218.66 1468.33 Q1218.66 1460.14 1222.54 1455.28 Q1226.43 1450.39 1232.98 1450.39 Q1234.74 1450.39 1236.53 1450.74 Q1238.33 1451.09 1240.28 1451.78 Z" fill="#000000" fill-rule="nonzero" fill-opacity="1" /><path clip-path="url(#clip890)" d="M1778.33 1451.02 L1800.55 1451.02 L1800.55 1453.01 L1788 1485.58 L1783.12 1485.58 L1794.92 1454.96 L1778.33 1454.96 L1778.33 1451.02 Z" fill="#000000" fill-rule="nonzero" fill-opacity="1" /><path clip-path="url(#clip890)" d="M2348.29 1469.17 Q2344.95 1469.17 2343.03 1470.95 Q2341.13 1472.73 2341.13 1475.86 Q2341.13 1478.98 2343.03 1480.77 Q2344.95 1482.55 2348.29 1482.55 Q2351.62 1482.55 2353.54 1480.77 Q2355.46 1478.96 2355.46 1475.86 Q2355.46 1472.73 2353.54 1470.95 Q2351.64 1469.17 2348.29 1469.17 M2343.61 1467.18 Q2340.6 1466.44 2338.91 1464.38 Q2337.24 1462.32 2337.24 1459.35 Q2337.24 1455.21 2340.18 1452.8 Q2343.15 1450.39 2348.29 1450.39 Q2353.45 1450.39 2356.39 1452.8 Q2359.33 1455.21 2359.33 1459.35 Q2359.33 1462.32 2357.64 1464.38 Q2355.97 1466.44 2352.98 1467.18 Q2356.36 1467.96 2358.24 1470.26 Q2360.14 1472.55 2360.14 1475.86 Q2360.14 1480.88 2357.06 1483.57 Q2354 1486.25 2348.29 1486.25 Q2342.57 1486.25 2339.49 1483.57 Q2336.43 1480.88 2336.43 1475.86 Q2336.43 1472.55 2338.33 1470.26 Q2340.23 1467.96 2343.61 1467.18 M2341.9 1459.79 Q2341.9 1462.48 2343.56 1463.98 Q2345.25 1465.49 2348.29 1465.49 Q2351.29 1465.49 2352.98 1463.98 Q2354.7 1462.48 2354.7 1459.79 Q2354.7 1457.11 2352.98 1455.6 Q2351.29 1454.1 2348.29 1454.1 Q2345.25 1454.1 2343.56 1455.6 Q2341.9 1457.11 2341.9 1459.79 Z" fill="#000000" fill-rule="nonzero" fill-opacity="1" /><path clip-path="url(#clip890)" d="M849.388 1524.18 L849.388 1530.96 Q846.141 1527.94 842.449 1526.44 Q838.789 1524.95 834.651 1524.95 Q826.503 1524.95 822.174 1529.95 Q817.846 1534.91 817.846 1544.33 Q817.846 1553.72 822.174 1558.72 Q826.503 1563.68 834.651 1563.68 Q838.789 1563.68 842.449 1562.19 Q846.141 1560.69 849.388 1557.67 L849.388 1564.38 Q846.014 1566.68 842.226 1567.82 Q838.471 1568.97 834.269 1568.97 Q823.479 1568.97 817.273 1562.38 Q811.066 1555.76 811.066 1544.33 Q811.066 1532.87 817.273 1526.28 Q823.479 1519.66 834.269 1519.66 Q838.534 1519.66 842.29 1520.81 Q846.078 1521.92 849.388 1524.18 Z" fill="#000000" fill-rule="nonzero" fill-opacity="1" /><path clip-path="url(#clip890)" d="M872.877 1536.5 Q868.167 1536.5 865.429 1540.19 Q862.692 1543.85 862.692 1550.25 Q862.692 1556.65 865.398 1560.34 Q868.135 1564 872.877 1564 Q877.556 1564 880.293 1560.31 Q883.031 1556.62 883.031 1550.25 Q883.031 1543.92 880.293 1540.23 Q877.556 1536.5 872.877 1536.5 M872.877 1531.54 Q880.516 1531.54 884.877 1536.5 Q889.237 1541.47 889.237 1550.25 Q889.237 1559 884.877 1564 Q880.516 1568.97 872.877 1568.97 Q865.207 1568.97 860.846 1564 Q856.517 1559 856.517 1550.25 Q856.517 1541.47 860.846 1536.5 Q865.207 1531.54 872.877 1531.54 Z" fill="#000000" fill-rule="nonzero" fill-opacity="1" /><path clip-path="url(#clip890)" d="M926.699 1539.24 Q928.895 1535.29 931.951 1533.41 Q935.007 1531.54 939.144 1531.54 Q944.714 1531.54 947.738 1535.45 Q950.762 1539.33 950.762 1546.53 L950.762 1568.04 L944.873 1568.04 L944.873 1546.72 Q944.873 1541.59 943.059 1539.11 Q941.245 1536.63 937.521 1536.63 Q932.97 1536.63 930.328 1539.65 Q927.686 1542.68 927.686 1547.9 L927.686 1568.04 L921.798 1568.04 L921.798 1546.72 Q921.798 1541.56 919.983 1539.11 Q918.169 1536.63 914.382 1536.63 Q909.894 1536.63 907.252 1539.68 Q904.61 1542.71 904.61 1547.9 L904.61 1568.04 L898.722 1568.04 L898.722 1532.4 L904.61 1532.4 L904.61 1537.93 Q906.615 1534.66 909.416 1533.1 Q912.217 1531.54 916.069 1531.54 Q919.952 1531.54 922.657 1533.51 Q925.394 1535.48 926.699 1539.24 Z" fill="#000000" fill-rule="nonzero" fill-opacity="1" /><path clip-path="url(#clip890)" d="M968.108 1562.7 L968.108 1581.6 L962.22 1581.6 L962.22 1532.4 L968.108 1532.4 L968.108 1537.81 Q969.954 1534.62 972.755 1533.1 Q975.588 1531.54 979.503 1531.54 Q985.996 1531.54 990.038 1536.69 Q994.112 1541.85 994.112 1550.25 Q994.112 1558.65 990.038 1563.81 Q985.996 1568.97 979.503 1568.97 Q975.588 1568.97 972.755 1567.44 Q969.954 1565.88 968.108 1562.7 M988.033 1550.25 Q988.033 1543.79 985.359 1540.13 Q982.718 1536.44 978.071 1536.44 Q973.424 1536.44 970.75 1540.13 Q968.108 1543.79 968.108 1550.25 Q968.108 1556.71 970.75 1560.4 Q973.424 1564.07 978.071 1564.07 Q982.718 1564.07 985.359 1560.4 Q988.033 1556.71 988.033 1550.25 Z" fill="#000000" fill-rule="nonzero" fill-opacity="1" /><path clip-path="url(#clip890)" d="M1024.48 1537.87 Q1023.49 1537.3 1022.31 1537.04 Q1021.17 1536.76 1019.77 1536.76 Q1014.8 1536.76 1012.13 1540 Q1009.49 1543.22 1009.49 1549.27 L1009.49 1568.04 L1003.6 1568.04 L1003.6 1532.4 L1009.49 1532.4 L1009.49 1537.93 Q1011.33 1534.69 1014.29 1533.13 Q1017.25 1531.54 1021.48 1531.54 Q1022.09 1531.54 1022.82 1531.63 Q1023.55 1531.7 1024.44 1531.85 L1024.48 1537.87 Z" fill="#000000" fill-rule="nonzero" fill-opacity="1" /><path clip-path="url(#clip890)" d="M1030.62 1532.4 L1036.48 1532.4 L1036.48 1568.04 L1030.62 1568.04 L1030.62 1532.4 M1030.62 1518.52 L1036.48 1518.52 L1036.48 1525.93 L1030.62 1525.93 L1030.62 1518.52 Z" fill="#000000" fill-rule="nonzero" fill-opacity="1" /><path clip-path="url(#clip890)" d="M1076.48 1539.24 Q1078.68 1535.29 1081.74 1533.41 Q1084.79 1531.54 1088.93 1531.54 Q1094.5 1531.54 1097.52 1535.45 Q1100.55 1539.33 1100.55 1546.53 L1100.55 1568.04 L1094.66 1568.04 L1094.66 1546.72 Q1094.66 1541.59 1092.84 1539.11 Q1091.03 1536.63 1087.31 1536.63 Q1082.75 1536.63 1080.11 1539.65 Q1077.47 1542.68 1077.47 1547.9 L1077.47 1568.04 L1071.58 1568.04 L1071.58 1546.72 Q1071.58 1541.56 1069.77 1539.11 Q1067.95 1536.63 1064.17 1536.63 Q1059.68 1536.63 1057.04 1539.68 Q1054.4 1542.71 1054.4 1547.9 L1054.4 1568.04 L1048.51 1568.04 L1048.51 1532.4 L1054.4 1532.4 L1054.4 1537.93 Q1056.4 1534.66 1059.2 1533.1 Q1062 1531.54 1065.85 1531.54 Q1069.74 1531.54 1072.44 1533.51 Q1075.18 1535.48 1076.48 1539.24 Z" fill="#000000" fill-rule="nonzero" fill-opacity="1" /><path clip-path="url(#clip890)" d="M1142.72 1548.76 L1142.72 1551.62 L1115.79 1551.62 Q1116.17 1557.67 1119.42 1560.85 Q1122.7 1564 1128.52 1564 Q1131.9 1564 1135.05 1563.17 Q1138.23 1562.35 1141.35 1560.69 L1141.35 1566.23 Q1138.2 1567.57 1134.89 1568.27 Q1131.58 1568.97 1128.17 1568.97 Q1119.64 1568.97 1114.65 1564 Q1109.68 1559.04 1109.68 1550.57 Q1109.68 1541.82 1114.39 1536.69 Q1119.13 1531.54 1127.16 1531.54 Q1134.35 1531.54 1138.52 1536.18 Q1142.72 1540.8 1142.72 1548.76 M1136.86 1547.04 Q1136.8 1542.23 1134.16 1539.37 Q1131.55 1536.5 1127.22 1536.5 Q1122.32 1536.5 1119.36 1539.27 Q1116.43 1542.04 1115.98 1547.07 L1136.86 1547.04 Z" fill="#000000" fill-rule="nonzero" fill-opacity="1" /><path clip-path="url(#clip890)" d="M1181.96 1546.53 L1181.96 1568.04 L1176.11 1568.04 L1176.11 1546.72 Q1176.11 1541.66 1174.13 1539.14 Q1172.16 1536.63 1168.21 1536.63 Q1163.47 1536.63 1160.73 1539.65 Q1158 1542.68 1158 1547.9 L1158 1568.04 L1152.11 1568.04 L1152.11 1532.4 L1158 1532.4 L1158 1537.93 Q1160.1 1534.72 1162.93 1533.13 Q1165.8 1531.54 1169.52 1531.54 Q1175.66 1531.54 1178.81 1535.36 Q1181.96 1539.14 1181.96 1546.53 Z" fill="#000000" fill-rule="nonzero" fill-opacity="1" /><path clip-path="url(#clip890)" d="M1199.44 1522.27 L1199.44 1532.4 L1211.5 1532.4 L1211.5 1536.95 L1199.44 1536.95 L1199.44 1556.3 Q1199.44 1560.66 1200.62 1561.9 Q1201.83 1563.14 1205.49 1563.14 L1211.5 1563.14 L1211.5 1568.04 L1205.49 1568.04 Q1198.71 1568.04 1196.13 1565.53 Q1193.55 1562.98 1193.55 1556.3 L1193.55 1536.95 L1189.25 1536.95 L1189.25 1532.4 L1193.55 1532.4 L1193.55 1522.27 L1199.44 1522.27 Z" fill="#000000" fill-rule="nonzero" fill-opacity="1" /><path clip-path="url(#clip890)" d="M1233.02 1536.5 Q1228.31 1536.5 1225.57 1540.19 Q1222.83 1543.85 1222.83 1550.25 Q1222.83 1556.65 1225.54 1560.34 Q1228.27 1564 1233.02 1564 Q1237.7 1564 1240.43 1560.31 Q1243.17 1556.62 1243.17 1550.25 Q1243.17 1543.92 1240.43 1540.23 Q1237.7 1536.5 1233.02 1536.5 M1233.02 1531.54 Q1240.66 1531.54 1245.02 1536.5 Q1249.38 1541.47 1249.38 1550.25 Q1249.38 1559 1245.02 1564 Q1240.66 1568.97 1233.02 1568.97 Q1225.35 1568.97 1220.99 1564 Q1216.66 1559 1216.66 1550.25 Q1216.66 1541.47 1220.99 1536.5 Q1225.35 1531.54 1233.02 1531.54 Z" fill="#000000" fill-rule="nonzero" fill-opacity="1" /><path clip-path="url(#clip890)" d="M1303.26 1537.81 L1303.26 1518.52 L1309.12 1518.52 L1309.12 1568.04 L1303.26 1568.04 L1303.26 1562.7 Q1301.42 1565.88 1298.58 1567.44 Q1295.78 1568.97 1291.84 1568.97 Q1285.38 1568.97 1281.3 1563.81 Q1277.26 1558.65 1277.26 1550.25 Q1277.26 1541.85 1281.3 1536.69 Q1285.38 1531.54 1291.84 1531.54 Q1295.78 1531.54 1298.58 1533.1 Q1301.42 1534.62 1303.26 1537.81 M1283.31 1550.25 Q1283.31 1556.71 1285.95 1560.4 Q1288.62 1564.07 1293.27 1564.07 Q1297.92 1564.07 1300.59 1560.4 Q1303.26 1556.71 1303.26 1550.25 Q1303.26 1543.79 1300.59 1540.13 Q1297.92 1536.44 1293.27 1536.44 Q1288.62 1536.44 1285.95 1540.13 Q1283.31 1543.79 1283.31 1550.25 Z" fill="#000000" fill-rule="nonzero" fill-opacity="1" /><path clip-path="url(#clip890)" d="M1337.38 1550.12 Q1330.29 1550.12 1327.55 1551.75 Q1324.81 1553.37 1324.81 1557.29 Q1324.81 1560.4 1326.85 1562.25 Q1328.92 1564.07 1332.45 1564.07 Q1337.32 1564.07 1340.25 1560.63 Q1343.21 1557.16 1343.21 1551.43 L1343.21 1550.12 L1337.38 1550.12 M1349.06 1547.71 L1349.06 1568.04 L1343.21 1568.04 L1343.21 1562.63 Q1341.2 1565.88 1338.21 1567.44 Q1335.22 1568.97 1330.89 1568.97 Q1325.42 1568.97 1322.17 1565.91 Q1318.95 1562.82 1318.95 1557.67 Q1318.95 1551.65 1322.96 1548.6 Q1327.01 1545.54 1335 1545.54 L1343.21 1545.54 L1343.21 1544.97 Q1343.21 1540.93 1340.53 1538.73 Q1337.89 1536.5 1333.09 1536.5 Q1330.03 1536.5 1327.13 1537.23 Q1324.24 1537.97 1321.56 1539.43 L1321.56 1534.02 Q1324.78 1532.78 1327.8 1532.17 Q1330.83 1531.54 1333.69 1531.54 Q1341.43 1531.54 1345.24 1535.55 Q1349.06 1539.56 1349.06 1547.71 Z" fill="#000000" fill-rule="nonzero" fill-opacity="1" /><path clip-path="url(#clip890)" d="M1410.59 1522.08 L1410.59 1528.35 Q1406.93 1526.6 1403.68 1525.74 Q1400.44 1524.88 1397.41 1524.88 Q1392.16 1524.88 1389.3 1526.92 Q1386.46 1528.96 1386.46 1532.71 Q1386.46 1535.87 1388.34 1537.49 Q1390.25 1539.08 1395.53 1540.07 L1399.42 1540.86 Q1406.61 1542.23 1410.02 1545.7 Q1413.45 1549.14 1413.45 1554.93 Q1413.45 1561.84 1408.81 1565.4 Q1404.19 1568.97 1395.25 1568.97 Q1391.87 1568.97 1388.05 1568.2 Q1384.27 1567.44 1380.19 1565.94 L1380.19 1559.32 Q1384.11 1561.52 1387.86 1562.63 Q1391.62 1563.75 1395.25 1563.75 Q1400.75 1563.75 1403.75 1561.58 Q1406.74 1559.42 1406.74 1555.41 Q1406.74 1551.91 1404.57 1549.93 Q1402.44 1547.96 1397.54 1546.97 L1393.62 1546.21 Q1386.43 1544.78 1383.22 1541.72 Q1380 1538.67 1380 1533.22 Q1380 1526.92 1384.43 1523.29 Q1388.88 1519.66 1396.68 1519.66 Q1400.02 1519.66 1403.49 1520.27 Q1406.96 1520.87 1410.59 1522.08 Z" fill="#000000" fill-rule="nonzero" fill-opacity="1" /><path clip-path="url(#clip890)" d="M1453.72 1548.76 L1453.72 1551.62 L1426.79 1551.62 Q1427.17 1557.67 1430.42 1560.85 Q1433.7 1564 1439.52 1564 Q1442.89 1564 1446.05 1563.17 Q1449.23 1562.35 1452.35 1560.69 L1452.35 1566.23 Q1449.2 1567.57 1445.89 1568.27 Q1442.58 1568.97 1439.17 1568.97 Q1430.64 1568.97 1425.64 1564 Q1420.68 1559.04 1420.68 1550.57 Q1420.68 1541.82 1425.39 1536.69 Q1430.13 1531.54 1438.15 1531.54 Q1445.35 1531.54 1449.51 1536.18 Q1453.72 1540.8 1453.72 1548.76 M1447.86 1547.04 Q1447.8 1542.23 1445.15 1539.37 Q1442.54 1536.5 1438.22 1536.5 Q1433.31 1536.5 1430.35 1539.27 Q1427.43 1542.04 1426.98 1547.07 L1447.86 1547.04 M1442.23 1515.91 L1448.56 1515.91 L1438.18 1527.88 L1433.31 1527.88 L1442.23 1515.91 Z" fill="#000000" fill-rule="nonzero" fill-opacity="1" /><path clip-path="url(#clip890)" d="M1468.99 1562.7 L1468.99 1581.6 L1463.11 1581.6 L1463.11 1532.4 L1468.99 1532.4 L1468.99 1537.81 Q1470.84 1534.62 1473.64 1533.1 Q1476.47 1531.54 1480.39 1531.54 Q1486.88 1531.54 1490.92 1536.69 Q1495 1541.85 1495 1550.25 Q1495 1558.65 1490.92 1563.81 Q1486.88 1568.97 1480.39 1568.97 Q1476.47 1568.97 1473.64 1567.44 Q1470.84 1565.88 1468.99 1562.7 M1488.92 1550.25 Q1488.92 1543.79 1486.24 1540.13 Q1483.6 1536.44 1478.96 1536.44 Q1474.31 1536.44 1471.64 1540.13 Q1468.99 1543.79 1468.99 1550.25 Q1468.99 1556.71 1471.64 1560.4 Q1474.31 1564.07 1478.96 1564.07 Q1483.6 1564.07 1486.24 1560.4 Q1488.92 1556.71 1488.92 1550.25 Z" fill="#000000" fill-rule="nonzero" fill-opacity="1" /><path clip-path="url(#clip890)" d="M1520.91 1550.12 Q1513.81 1550.12 1511.07 1551.75 Q1508.33 1553.37 1508.33 1557.29 Q1508.33 1560.4 1510.37 1562.25 Q1512.44 1564.07 1515.97 1564.07 Q1520.84 1564.07 1523.77 1560.63 Q1526.73 1557.16 1526.73 1551.43 L1526.73 1550.12 L1520.91 1550.12 M1532.59 1547.71 L1532.59 1568.04 L1526.73 1568.04 L1526.73 1562.63 Q1524.73 1565.88 1521.73 1567.44 Q1518.74 1568.97 1514.41 1568.97 Q1508.94 1568.97 1505.69 1565.91 Q1502.48 1562.82 1502.48 1557.67 Q1502.48 1551.65 1506.49 1548.6 Q1510.53 1545.54 1518.52 1545.54 L1526.73 1545.54 L1526.73 1544.97 Q1526.73 1540.93 1524.06 1538.73 Q1521.42 1536.5 1516.61 1536.5 Q1513.55 1536.5 1510.66 1537.23 Q1507.76 1537.97 1505.09 1539.43 L1505.09 1534.02 Q1508.3 1532.78 1511.33 1532.17 Q1514.35 1531.54 1517.21 1531.54 Q1524.95 1531.54 1528.77 1535.55 Q1532.59 1539.56 1532.59 1547.71 Z" fill="#000000" fill-rule="nonzero" fill-opacity="1" /><path clip-path="url(#clip890)" d="M1544.65 1518.52 L1550.51 1518.52 L1550.51 1568.04 L1544.65 1568.04 L1544.65 1518.52 Z" fill="#000000" fill-rule="nonzero" fill-opacity="1" /><path clip-path="url(#clip890)" d="M1578.96 1550.12 Q1571.86 1550.12 1569.13 1551.75 Q1566.39 1553.37 1566.39 1557.29 Q1566.39 1560.4 1568.43 1562.25 Q1570.5 1564.07 1574.03 1564.07 Q1578.9 1564.07 1581.83 1560.63 Q1584.79 1557.16 1584.79 1551.43 L1584.79 1550.12 L1578.96 1550.12 M1590.64 1547.71 L1590.64 1568.04 L1584.79 1568.04 L1584.79 1562.63 Q1582.78 1565.88 1579.79 1567.44 Q1576.8 1568.97 1572.47 1568.97 Q1566.99 1568.97 1563.75 1565.91 Q1560.53 1562.82 1560.53 1557.67 Q1560.53 1551.65 1564.54 1548.6 Q1568.59 1545.54 1576.57 1545.54 L1584.79 1545.54 L1584.79 1544.97 Q1584.79 1540.93 1582.11 1538.73 Q1579.47 1536.5 1574.66 1536.5 Q1571.61 1536.5 1568.71 1537.23 Q1565.82 1537.97 1563.14 1539.43 L1563.14 1534.02 Q1566.36 1532.78 1569.38 1532.17 Q1572.4 1531.54 1575.27 1531.54 Q1583 1531.54 1586.82 1535.55 Q1590.64 1539.56 1590.64 1547.71 Z" fill="#000000" fill-rule="nonzero" fill-opacity="1" /><path clip-path="url(#clip890)" d="M1637.49 1518.58 Q1633.23 1525.9 1631.16 1533.06 Q1629.09 1540.23 1629.09 1547.58 Q1629.09 1554.93 1631.16 1562.16 Q1633.26 1569.35 1637.49 1576.64 L1632.4 1576.64 Q1627.63 1569.16 1625.24 1561.93 Q1622.88 1554.71 1622.88 1547.58 Q1622.88 1540.48 1625.24 1533.29 Q1627.6 1526.09 1632.4 1518.58 L1637.49 1518.58 Z" fill="#000000" fill-rule="nonzero" fill-opacity="1" /><path clip-path="url(#clip890)" d="M1674.51 1533.76 L1674.51 1539.24 Q1672.03 1537.87 1669.51 1537.2 Q1667.03 1536.5 1664.48 1536.5 Q1658.79 1536.5 1655.64 1540.13 Q1652.49 1543.73 1652.49 1550.25 Q1652.49 1556.78 1655.64 1560.4 Q1658.79 1564 1664.48 1564 Q1667.03 1564 1669.51 1563.33 Q1672.03 1562.63 1674.51 1561.26 L1674.51 1566.68 Q1672.06 1567.82 1669.42 1568.39 Q1666.81 1568.97 1663.85 1568.97 Q1655.8 1568.97 1651.05 1563.91 Q1646.31 1558.85 1646.31 1550.25 Q1646.31 1541.53 1651.08 1536.53 Q1655.89 1531.54 1664.23 1531.54 Q1666.94 1531.54 1669.51 1532.11 Q1672.09 1532.65 1674.51 1533.76 Z" fill="#000000" fill-rule="nonzero" fill-opacity="1" /><path clip-path="url(#clip890)" d="M1712.45 1539.24 Q1714.65 1535.29 1717.7 1533.41 Q1720.76 1531.54 1724.9 1531.54 Q1730.47 1531.54 1733.49 1535.45 Q1736.51 1539.33 1736.51 1546.53 L1736.51 1568.04 L1730.62 1568.04 L1730.62 1546.72 Q1730.62 1541.59 1728.81 1539.11 Q1727 1536.63 1723.27 1536.63 Q1718.72 1536.63 1716.08 1539.65 Q1713.44 1542.68 1713.44 1547.9 L1713.44 1568.04 L1707.55 1568.04 L1707.55 1546.72 Q1707.55 1541.56 1705.73 1539.11 Q1703.92 1536.63 1700.13 1536.63 Q1695.64 1536.63 1693 1539.68 Q1690.36 1542.71 1690.36 1547.9 L1690.36 1568.04 L1684.47 1568.04 L1684.47 1532.4 L1690.36 1532.4 L1690.36 1537.93 Q1692.37 1534.66 1695.17 1533.1 Q1697.97 1531.54 1701.82 1531.54 Q1705.7 1531.54 1708.41 1533.51 Q1711.15 1535.48 1712.45 1539.24 Z" fill="#000000" fill-rule="nonzero" fill-opacity="1" /><path clip-path="url(#clip890)" d="M1747.27 1518.58 L1752.36 1518.58 Q1757.14 1526.09 1759.49 1533.29 Q1761.88 1540.48 1761.88 1547.58 Q1761.88 1554.71 1759.49 1561.93 Q1757.14 1569.16 1752.36 1576.64 L1747.27 1576.64 Q1751.5 1569.35 1753.57 1562.16 Q1755.67 1554.93 1755.67 1547.58 Q1755.67 1540.23 1753.57 1533.06 Q1751.5 1525.9 1747.27 1518.58 Z" fill="#000000" fill-rule="nonzero" fill-opacity="1" /><polyline clip-path="url(#clip892)" style="stroke:#000000; stroke-linecap:round; stroke-linejoin:round; stroke-width:2; stroke-opacity:0.1; fill:none" points="220.19,1384.24 2352.76,1384.24 "/>
<polyline clip-path="url(#clip892)" style="stroke:#000000; stroke-linecap:round; stroke-linejoin:round; stroke-width:2; stroke-opacity:0.1; fill:none" points="220.19,1113.81 2352.76,1113.81 "/>
<polyline clip-path="url(#clip892)" style="stroke:#000000; stroke-linecap:round; stroke-linejoin:round; stroke-width:2; stroke-opacity:0.1; fill:none" points="220.19,843.383 2352.76,843.383 "/>
<polyline clip-path="url(#clip892)" style="stroke:#000000; stroke-linecap:round; stroke-linejoin:round; stroke-width:2; stroke-opacity:0.1; fill:none" points="220.19,572.955 2352.76,572.955 "/>
<polyline clip-path="url(#clip892)" style="stroke:#000000; stroke-linecap:round; stroke-linejoin:round; stroke-width:2; stroke-opacity:0.1; fill:none" points="220.19,302.528 2352.76,302.528 "/>
<polyline clip-path="url(#clip890)" style="stroke:#000000; stroke-linecap:round; stroke-linejoin:round; stroke-width:4; stroke-opacity:1; fill:none" points="220.19,1423.18 220.19,47.2441 "/>
<polyline clip-path="url(#clip890)" style="stroke:#000000; stroke-linecap:round; stroke-linejoin:round; stroke-width:4; stroke-opacity:1; fill:none" points="220.19,1384.24 239.088,1384.24 "/>
<polyline clip-path="url(#clip890)" style="stroke:#000000; stroke-linecap:round; stroke-linejoin:round; stroke-width:4; stroke-opacity:1; fill:none" points="220.19,1113.81 239.088,1113.81 "/>
<polyline clip-path="url(#clip890)" style="stroke:#000000; stroke-linecap:round; stroke-linejoin:round; stroke-width:4; stroke-opacity:1; fill:none" points="220.19,843.383 239.088,843.383 "/>
<polyline clip-path="url(#clip890)" style="stroke:#000000; stroke-linecap:round; stroke-linejoin:round; stroke-width:4; stroke-opacity:1; fill:none" points="220.19,572.955 239.088,572.955 "/>
<polyline clip-path="url(#clip890)" style="stroke:#000000; stroke-linecap:round; stroke-linejoin:round; stroke-width:4; stroke-opacity:1; fill:none" points="220.19,302.528 239.088,302.528 "/>
<path clip-path="url(#clip890)" d="M121.043 1397.58 L137.362 1397.58 L137.362 1401.52 L115.418 1401.52 L115.418 1397.58 Q118.08 1394.83 122.663 1390.2 Q127.269 1385.55 128.45 1384.2 Q130.695 1381.68 131.575 1379.94 Q132.478 1378.19 132.478 1376.5 Q132.478 1373.74 130.533 1372 Q128.612 1370.27 125.51 1370.27 Q123.311 1370.27 120.857 1371.03 Q118.427 1371.8 115.649 1373.35 L115.649 1368.62 Q118.473 1367.49 120.927 1366.91 Q123.38 1366.33 125.418 1366.33 Q130.788 1366.33 133.982 1369.02 Q137.177 1371.7 137.177 1376.19 Q137.177 1378.32 136.367 1380.25 Q135.579 1382.14 133.473 1384.74 Q132.894 1385.41 129.792 1388.62 Q126.691 1391.82 121.043 1397.58 Z" fill="#000000" fill-rule="nonzero" fill-opacity="1" /><path clip-path="url(#clip890)" d="M147.177 1395.64 L152.061 1395.64 L152.061 1401.52 L147.177 1401.52 L147.177 1395.64 Z" fill="#000000" fill-rule="nonzero" fill-opacity="1" /><path clip-path="url(#clip890)" d="M172.246 1370.04 Q168.635 1370.04 166.806 1373.6 Q165.001 1377.14 165.001 1384.27 Q165.001 1391.38 166.806 1394.94 Q168.635 1398.49 172.246 1398.49 Q175.88 1398.49 177.686 1394.94 Q179.514 1391.38 179.514 1384.27 Q179.514 1377.14 177.686 1373.6 Q175.88 1370.04 172.246 1370.04 M172.246 1366.33 Q178.056 1366.33 181.112 1370.94 Q184.19 1375.52 184.19 1384.27 Q184.19 1393 181.112 1397.61 Q178.056 1402.19 172.246 1402.19 Q166.436 1402.19 163.357 1397.61 Q160.302 1393 160.302 1384.27 Q160.302 1375.52 163.357 1370.94 Q166.436 1366.33 172.246 1366.33 Z" fill="#000000" fill-rule="nonzero" fill-opacity="1" /><path clip-path="url(#clip890)" d="M122.038 1127.16 L138.357 1127.16 L138.357 1131.09 L116.413 1131.09 L116.413 1127.16 Q119.075 1124.4 123.658 1119.77 Q128.265 1115.12 129.445 1113.78 Q131.691 1111.25 132.57 1109.52 Q133.473 1107.76 133.473 1106.07 Q133.473 1103.31 131.529 1101.58 Q129.607 1099.84 126.505 1099.84 Q124.306 1099.84 121.853 1100.6 Q119.422 1101.37 116.644 1102.92 L116.644 1098.2 Q119.468 1097.06 121.922 1096.48 Q124.376 1095.91 126.413 1095.91 Q131.783 1095.91 134.978 1098.59 Q138.172 1101.28 138.172 1105.77 Q138.172 1107.9 137.362 1109.82 Q136.575 1111.72 134.468 1114.31 Q133.89 1114.98 130.788 1118.2 Q127.686 1121.39 122.038 1127.16 Z" fill="#000000" fill-rule="nonzero" fill-opacity="1" /><path clip-path="url(#clip890)" d="M148.172 1125.21 L153.056 1125.21 L153.056 1131.09 L148.172 1131.09 L148.172 1125.21 Z" fill="#000000" fill-rule="nonzero" fill-opacity="1" /><path clip-path="url(#clip890)" d="M163.288 1096.53 L181.644 1096.53 L181.644 1100.47 L167.57 1100.47 L167.57 1108.94 Q168.589 1108.59 169.607 1108.43 Q170.626 1108.24 171.644 1108.24 Q177.431 1108.24 180.811 1111.41 Q184.19 1114.59 184.19 1120 Q184.19 1125.58 180.718 1128.68 Q177.246 1131.76 170.927 1131.76 Q168.751 1131.76 166.482 1131.39 Q164.237 1131.02 161.829 1130.28 L161.829 1125.58 Q163.913 1126.72 166.135 1127.27 Q168.357 1127.83 170.834 1127.83 Q174.839 1127.83 177.176 1125.72 Q179.514 1123.61 179.514 1120 Q179.514 1116.39 177.176 1114.29 Q174.839 1112.18 170.834 1112.18 Q168.959 1112.18 167.084 1112.6 Q165.232 1113.01 163.288 1113.89 L163.288 1096.53 Z" fill="#000000" fill-rule="nonzero" fill-opacity="1" /><path clip-path="url(#clip890)" d="M131.181 842.029 Q134.538 842.746 136.413 845.015 Q138.311 847.283 138.311 850.617 Q138.311 855.732 134.792 858.533 Q131.274 861.334 124.793 861.334 Q122.617 861.334 120.302 860.894 Q118.01 860.478 115.556 859.621 L115.556 855.107 Q117.501 856.242 119.816 856.82 Q122.13 857.399 124.654 857.399 Q129.052 857.399 131.343 855.663 Q133.658 853.927 133.658 850.617 Q133.658 847.561 131.505 845.848 Q129.376 844.112 125.556 844.112 L121.529 844.112 L121.529 840.27 L125.742 840.27 Q129.191 840.27 131.019 838.904 Q132.848 837.515 132.848 834.922 Q132.848 832.26 130.95 830.848 Q129.075 829.413 125.556 829.413 Q123.635 829.413 121.436 829.83 Q119.237 830.247 116.598 831.126 L116.598 826.959 Q119.26 826.219 121.575 825.848 Q123.913 825.478 125.973 825.478 Q131.297 825.478 134.399 827.909 Q137.501 830.316 137.501 834.436 Q137.501 837.307 135.857 839.297 Q134.214 841.265 131.181 842.029 Z" fill="#000000" fill-rule="nonzero" fill-opacity="1" /><path clip-path="url(#clip890)" d="M147.177 854.783 L152.061 854.783 L152.061 860.663 L147.177 860.663 L147.177 854.783 Z" fill="#000000" fill-rule="nonzero" fill-opacity="1" /><path clip-path="url(#clip890)" d="M172.246 829.182 Q168.635 829.182 166.806 832.747 Q165.001 836.288 165.001 843.418 Q165.001 850.524 166.806 854.089 Q168.635 857.631 172.246 857.631 Q175.88 857.631 177.686 854.089 Q179.514 850.524 179.514 843.418 Q179.514 836.288 177.686 832.747 Q175.88 829.182 172.246 829.182 M172.246 825.478 Q178.056 825.478 181.112 830.084 Q184.19 834.668 184.19 843.418 Q184.19 852.145 181.112 856.751 Q178.056 861.334 172.246 861.334 Q166.436 861.334 163.357 856.751 Q160.302 852.145 160.302 843.418 Q160.302 834.668 163.357 830.084 Q166.436 825.478 172.246 825.478 Z" fill="#000000" fill-rule="nonzero" fill-opacity="1" /><path clip-path="url(#clip890)" d="M132.177 571.601 Q135.533 572.319 137.408 574.587 Q139.306 576.856 139.306 580.189 Q139.306 585.305 135.788 588.106 Q132.269 590.907 125.788 590.907 Q123.612 590.907 121.297 590.467 Q119.006 590.05 116.552 589.194 L116.552 584.68 Q118.496 585.814 120.811 586.393 Q123.126 586.972 125.649 586.972 Q130.047 586.972 132.339 585.235 Q134.654 583.499 134.654 580.189 Q134.654 577.134 132.501 575.421 Q130.371 573.685 126.552 573.685 L122.524 573.685 L122.524 569.842 L126.737 569.842 Q130.186 569.842 132.015 568.476 Q133.843 567.087 133.843 564.495 Q133.843 561.833 131.945 560.421 Q130.07 558.986 126.552 558.986 Q124.63 558.986 122.431 559.402 Q120.232 559.819 117.593 560.699 L117.593 556.532 Q120.255 555.791 122.57 555.421 Q124.908 555.05 126.968 555.05 Q132.292 555.05 135.394 557.481 Q138.496 559.888 138.496 564.009 Q138.496 566.879 136.853 568.87 Q135.209 570.837 132.177 571.601 Z" fill="#000000" fill-rule="nonzero" fill-opacity="1" /><path clip-path="url(#clip890)" d="M148.172 584.356 L153.056 584.356 L153.056 590.235 L148.172 590.235 L148.172 584.356 Z" fill="#000000" fill-rule="nonzero" fill-opacity="1" /><path clip-path="url(#clip890)" d="M163.288 555.675 L181.644 555.675 L181.644 559.611 L167.57 559.611 L167.57 568.083 Q168.589 567.736 169.607 567.573 Q170.626 567.388 171.644 567.388 Q177.431 567.388 180.811 570.56 Q184.19 573.731 184.19 579.147 Q184.19 584.726 180.718 587.828 Q177.246 590.907 170.927 590.907 Q168.751 590.907 166.482 590.536 Q164.237 590.166 161.829 589.425 L161.829 584.726 Q163.913 585.86 166.135 586.416 Q168.357 586.972 170.834 586.972 Q174.839 586.972 177.176 584.865 Q179.514 582.759 179.514 579.147 Q179.514 575.536 177.176 573.43 Q174.839 571.323 170.834 571.323 Q168.959 571.323 167.084 571.74 Q165.232 572.157 163.288 573.036 L163.288 555.675 Z" fill="#000000" fill-rule="nonzero" fill-opacity="1" /><path clip-path="url(#clip890)" d="M129.862 289.322 L118.056 307.771 L129.862 307.771 L129.862 289.322 M128.635 285.248 L134.515 285.248 L134.515 307.771 L139.445 307.771 L139.445 311.66 L134.515 311.66 L134.515 319.808 L129.862 319.808 L129.862 311.66 L114.26 311.66 L114.26 307.146 L128.635 285.248 Z" fill="#000000" fill-rule="nonzero" fill-opacity="1" /><path clip-path="url(#clip890)" d="M147.177 313.928 L152.061 313.928 L152.061 319.808 L147.177 319.808 L147.177 313.928 Z" fill="#000000" fill-rule="nonzero" fill-opacity="1" /><path clip-path="url(#clip890)" d="M172.246 288.326 Q168.635 288.326 166.806 291.891 Q165.001 295.433 165.001 302.562 Q165.001 309.669 166.806 313.234 Q168.635 316.775 172.246 316.775 Q175.88 316.775 177.686 313.234 Q179.514 309.669 179.514 302.562 Q179.514 295.433 177.686 291.891 Q175.88 288.326 172.246 288.326 M172.246 284.623 Q178.056 284.623 181.112 289.229 Q184.19 293.813 184.19 302.562 Q184.19 311.289 181.112 315.896 Q178.056 320.479 172.246 320.479 Q166.436 320.479 163.357 315.896 Q160.302 311.289 160.302 302.562 Q160.302 293.813 163.357 289.229 Q166.436 284.623 172.246 284.623 Z" fill="#000000" fill-rule="nonzero" fill-opacity="1" /><path clip-path="url(#clip890)" d="M16.4842 1112.16 L16.4842 1105.73 L58.5933 1105.73 L58.5933 1082.59 L64.0042 1082.59 L64.0042 1112.16 L16.4842 1112.16 Z" fill="#000000" fill-rule="nonzero" fill-opacity="1" /><path clip-path="url(#clip890)" d="M46.0847 1059.89 Q46.0847 1066.99 47.7079 1069.73 Q49.3312 1072.47 53.2461 1072.47 Q56.3653 1072.47 58.2114 1070.43 Q60.0256 1068.36 60.0256 1064.83 Q60.0256 1059.96 56.5881 1057.03 Q53.1188 1054.07 47.3897 1054.07 L46.0847 1054.07 L46.0847 1059.89 M43.6657 1048.21 L64.0042 1048.21 L64.0042 1054.07 L58.5933 1054.07 Q61.8398 1056.08 63.3994 1059.07 Q64.9272 1062.06 64.9272 1066.39 Q64.9272 1071.86 61.8716 1075.11 Q58.7843 1078.32 53.6281 1078.32 Q47.6125 1078.32 44.5569 1074.31 Q41.5014 1070.27 41.5014 1062.28 L41.5014 1054.07 L40.9285 1054.07 Q36.8862 1054.07 34.6901 1056.74 Q32.4621 1059.39 32.4621 1064.19 Q32.4621 1067.25 33.1941 1070.14 Q33.9262 1073.04 35.3903 1075.71 L29.9795 1075.71 Q28.7381 1072.5 28.1334 1069.48 Q27.4968 1066.45 27.4968 1063.59 Q27.4968 1055.85 31.5072 1052.03 Q35.5176 1048.21 43.6657 1048.21 Z" fill="#000000" fill-rule="nonzero" fill-opacity="1" /><path clip-path="url(#clip890)" d="M33.8307 1015.49 Q33.2578 1016.48 33.0032 1017.66 Q32.7167 1018.8 32.7167 1020.2 Q32.7167 1025.17 35.9632 1027.84 Q39.1779 1030.49 45.2253 1030.49 L64.0042 1030.49 L64.0042 1036.37 L28.3562 1036.37 L28.3562 1030.49 L33.8944 1030.49 Q30.6479 1028.64 29.0883 1025.68 Q27.4968 1022.72 27.4968 1018.49 Q27.4968 1017.88 27.5923 1017.15 Q27.656 1016.42 27.8151 1015.53 L33.8307 1015.49 Z" fill="#000000" fill-rule="nonzero" fill-opacity="1" /><path clip-path="url(#clip890)" d="M45.7664 987.039 Q39.4007 987.039 35.8996 989.681 Q32.3984 992.291 32.3984 997.033 Q32.3984 1001.74 35.8996 1004.39 Q39.4007 1007 45.7664 1007 Q52.1003 1007 55.6014 1004.39 Q59.1026 1001.74 59.1026 997.033 Q59.1026 992.291 55.6014 989.681 Q52.1003 987.039 45.7664 987.039 M59.58 981.183 Q68.683 981.183 73.1071 985.225 Q77.5631 989.267 77.5631 997.606 Q77.5631 1000.69 77.0857 1003.43 Q76.6401 1006.17 75.6852 1008.75 L69.9879 1008.75 Q71.3884 1006.17 72.0568 1003.65 Q72.7252 1001.14 72.7252 998.529 Q72.7252 992.768 69.7015 989.904 Q66.7096 987.039 60.6303 987.039 L57.7339 987.039 Q60.885 988.854 62.4446 991.686 Q64.0042 994.519 64.0042 998.466 Q64.0042 1005.02 59.0071 1009.03 Q54.01 1013.04 45.7664 1013.04 Q37.491 1013.04 32.4939 1009.03 Q27.4968 1005.02 27.4968 998.466 Q27.4968 994.519 29.0564 991.686 Q30.616 988.854 33.7671 987.039 L28.3562 987.039 L28.3562 981.183 L59.58 981.183 Z" fill="#000000" fill-rule="nonzero" fill-opacity="1" /><path clip-path="url(#clip890)" d="M49.9359 969.725 L28.3562 969.725 L28.3562 963.868 L49.7131 963.868 Q54.7739 963.868 57.3202 961.895 Q59.8346 959.921 59.8346 955.975 Q59.8346 951.232 56.8109 948.495 Q53.7872 945.726 48.5673 945.726 L28.3562 945.726 L28.3562 939.869 L64.0042 939.869 L64.0042 945.726 L58.5296 945.726 Q61.7762 947.858 63.3676 950.691 Q64.9272 953.492 64.9272 957.216 Q64.9272 963.359 61.1078 966.542 Q57.2883 969.725 49.9359 969.725 M27.4968 954.988 L27.4968 954.988 Z" fill="#000000" fill-rule="nonzero" fill-opacity="1" /><path clip-path="url(#clip890)" d="M33.8307 907.15 Q33.2578 908.136 33.0032 909.314 Q32.7167 910.46 32.7167 911.86 Q32.7167 916.826 35.9632 919.499 Q39.1779 922.141 45.2253 922.141 L64.0042 922.141 L64.0042 928.029 L28.3562 928.029 L28.3562 922.141 L33.8944 922.141 Q30.6479 920.295 29.0883 917.335 Q27.4968 914.375 27.4968 910.142 Q27.4968 909.537 27.5923 908.805 Q27.656 908.073 27.8151 907.182 L33.8307 907.15 Z" fill="#000000" fill-rule="nonzero" fill-opacity="1" /><path clip-path="url(#clip890)" d="M46.0847 884.806 Q46.0847 891.904 47.7079 894.641 Q49.3312 897.378 53.2461 897.378 Q56.3653 897.378 58.2114 895.341 Q60.0256 893.272 60.0256 889.739 Q60.0256 884.87 56.5881 881.942 Q53.1188 878.981 47.3897 878.981 L46.0847 878.981 L46.0847 884.806 M43.6657 873.125 L64.0042 873.125 L64.0042 878.981 L58.5933 878.981 Q61.8398 880.987 63.3994 883.979 Q64.9272 886.97 64.9272 891.299 Q64.9272 896.774 61.8716 900.02 Q58.7843 903.235 53.6281 903.235 Q47.6125 903.235 44.5569 899.224 Q41.5014 895.182 41.5014 887.193 L41.5014 878.981 L40.9285 878.981 Q36.8862 878.981 34.6901 881.655 Q32.4621 884.297 32.4621 889.103 Q32.4621 892.158 33.1941 895.055 Q33.9262 897.951 35.3903 900.625 L29.9795 900.625 Q28.7381 897.41 28.1334 894.386 Q27.4968 891.363 27.4968 888.498 Q27.4968 880.764 31.5072 876.944 Q35.5176 873.125 43.6657 873.125 Z" fill="#000000" fill-rule="nonzero" fill-opacity="1" /><path clip-path="url(#clip890)" d="M33.7671 816.884 L14.479 816.884 L14.479 811.028 L64.0042 811.028 L64.0042 816.884 L58.657 816.884 Q61.8398 818.73 63.3994 821.563 Q64.9272 824.364 64.9272 828.31 Q64.9272 834.772 59.771 838.846 Q54.6147 842.888 46.212 842.888 Q37.8093 842.888 32.6531 838.846 Q27.4968 834.772 27.4968 828.31 Q27.4968 824.364 29.0564 821.563 Q30.5842 818.73 33.7671 816.884 M46.212 836.84 Q52.6732 836.84 56.3653 834.199 Q60.0256 831.525 60.0256 826.878 Q60.0256 822.231 56.3653 819.558 Q52.6732 816.884 46.212 816.884 Q39.7508 816.884 36.0905 819.558 Q32.3984 822.231 32.3984 826.878 Q32.3984 831.525 36.0905 834.199 Q39.7508 836.84 46.212 836.84 Z" fill="#000000" fill-rule="nonzero" fill-opacity="1" /><path clip-path="url(#clip890)" d="M46.0847 782.764 Q46.0847 789.862 47.7079 792.599 Q49.3312 795.336 53.2461 795.336 Q56.3653 795.336 58.2114 793.299 Q60.0256 791.23 60.0256 787.697 Q60.0256 782.827 56.5881 779.899 Q53.1188 776.939 47.3897 776.939 L46.0847 776.939 L46.0847 782.764 M43.6657 771.083 L64.0042 771.083 L64.0042 776.939 L58.5933 776.939 Q61.8398 778.944 63.3994 781.936 Q64.9272 784.928 64.9272 789.257 Q64.9272 794.731 61.8716 797.978 Q58.7843 801.193 53.6281 801.193 Q47.6125 801.193 44.5569 797.182 Q41.5014 793.14 41.5014 785.151 L41.5014 776.939 L40.9285 776.939 Q36.8862 776.939 34.6901 779.613 Q32.4621 782.255 32.4621 787.061 Q32.4621 790.116 33.1941 793.013 Q33.9262 795.909 35.3903 798.583 L29.9795 798.583 Q28.7381 795.368 28.1334 792.344 Q27.4968 789.32 27.4968 786.456 Q27.4968 778.722 31.5072 774.902 Q35.5176 771.083 43.6657 771.083 Z" fill="#000000" fill-rule="nonzero" fill-opacity="1" /><path clip-path="url(#clip890)" d="M18.0438 709.558 L24.314 709.558 Q22.5634 713.218 21.704 716.465 Q20.8447 719.711 20.8447 722.735 Q20.8447 727.987 22.8817 730.851 Q24.9187 733.684 28.6745 733.684 Q31.8255 733.684 33.4488 731.806 Q35.0402 729.897 36.0269 724.613 L36.8226 720.73 Q38.1912 713.537 41.6605 710.131 Q45.098 706.694 50.8908 706.694 Q57.7976 706.694 61.3624 711.341 Q64.9272 715.956 64.9272 724.9 Q64.9272 728.273 64.1633 732.093 Q63.3994 735.88 61.9035 739.954 L55.2831 739.954 Q57.4793 736.04 58.5933 732.284 Q59.7073 728.528 59.7073 724.9 Q59.7073 719.393 57.543 716.401 Q55.3786 713.409 51.3682 713.409 Q47.8671 713.409 45.8937 715.574 Q43.9204 717.706 42.9337 722.608 L42.1698 726.523 Q40.7375 733.716 37.682 736.931 Q34.6264 740.145 29.1837 740.145 Q22.8817 740.145 19.2532 735.721 Q15.6248 731.265 15.6248 723.467 Q15.6248 720.125 16.2295 716.656 Q16.8343 713.187 18.0438 709.558 Z" fill="#000000" fill-rule="nonzero" fill-opacity="1" /><path clip-path="url(#clip890)" d="M44.7161 666.431 L47.5806 666.431 L47.5806 693.357 Q53.6281 692.976 56.8109 689.729 Q59.9619 686.451 59.9619 680.626 Q59.9619 677.252 59.1344 674.101 Q58.3069 670.918 56.6518 667.799 L62.1899 667.799 Q63.5267 670.95 64.227 674.26 Q64.9272 677.57 64.9272 680.976 Q64.9272 689.506 59.9619 694.503 Q54.9967 699.469 46.5303 699.469 Q37.7774 699.469 32.6531 694.758 Q27.4968 690.015 27.4968 681.995 Q27.4968 674.801 32.1438 670.632 Q36.7589 666.431 44.7161 666.431 M42.9973 672.287 Q38.1912 672.351 35.3266 674.992 Q32.4621 677.602 32.4621 681.931 Q32.4621 686.833 35.2312 689.793 Q38.0002 692.721 43.0292 693.166 L42.9973 672.287 M11.869 677.921 L11.869 671.587 L23.8365 681.963 L23.8365 686.833 L11.869 677.921 Z" fill="#000000" fill-rule="nonzero" fill-opacity="1" /><path clip-path="url(#clip890)" d="M58.657 651.153 L77.5631 651.153 L77.5631 657.041 L28.3562 657.041 L28.3562 651.153 L33.7671 651.153 Q30.5842 649.307 29.0564 646.506 Q27.4968 643.673 27.4968 639.758 Q27.4968 633.265 32.6531 629.223 Q37.8093 625.149 46.212 625.149 Q54.6147 625.149 59.771 629.223 Q64.9272 633.265 64.9272 639.758 Q64.9272 643.673 63.3994 646.506 Q61.8398 649.307 58.657 651.153 M46.212 631.228 Q39.7508 631.228 36.0905 633.902 Q32.3984 636.544 32.3984 641.19 Q32.3984 645.837 36.0905 648.511 Q39.7508 651.153 46.212 651.153 Q52.6732 651.153 56.3653 648.511 Q60.0256 645.837 60.0256 641.19 Q60.0256 636.544 56.3653 633.902 Q52.6732 631.228 46.212 631.228 Z" fill="#000000" fill-rule="nonzero" fill-opacity="1" /><path clip-path="url(#clip890)" d="M46.0847 599.24 Q46.0847 606.338 47.7079 609.075 Q49.3312 611.813 53.2461 611.813 Q56.3653 611.813 58.2114 609.776 Q60.0256 607.707 60.0256 604.174 Q60.0256 599.304 56.5881 596.376 Q53.1188 593.416 47.3897 593.416 L46.0847 593.416 L46.0847 599.24 M43.6657 587.559 L64.0042 587.559 L64.0042 593.416 L58.5933 593.416 Q61.8398 595.421 63.3994 598.413 Q64.9272 601.405 64.9272 605.733 Q64.9272 611.208 61.8716 614.455 Q58.7843 617.669 53.6281 617.669 Q47.6125 617.669 44.5569 613.659 Q41.5014 609.617 41.5014 601.628 L41.5014 593.416 L40.9285 593.416 Q36.8862 593.416 34.6901 596.089 Q32.4621 598.731 32.4621 603.537 Q32.4621 606.593 33.1941 609.489 Q33.9262 612.386 35.3903 615.059 L29.9795 615.059 Q28.7381 611.845 28.1334 608.821 Q27.4968 605.797 27.4968 602.933 Q27.4968 595.198 31.5072 591.379 Q35.5176 587.559 43.6657 587.559 Z" fill="#000000" fill-rule="nonzero" fill-opacity="1" /><path clip-path="url(#clip890)" d="M14.479 575.496 L14.479 569.64 L64.0042 569.64 L64.0042 575.496 L14.479 575.496 Z" fill="#000000" fill-rule="nonzero" fill-opacity="1" /><path clip-path="url(#clip890)" d="M46.0847 541.185 Q46.0847 548.283 47.7079 551.02 Q49.3312 553.758 53.2461 553.758 Q56.3653 553.758 58.2114 551.72 Q60.0256 549.652 60.0256 546.119 Q60.0256 541.249 56.5881 538.321 Q53.1188 535.361 47.3897 535.361 L46.0847 535.361 L46.0847 541.185 M43.6657 529.504 L64.0042 529.504 L64.0042 535.361 L58.5933 535.361 Q61.8398 537.366 63.3994 540.358 Q64.9272 543.35 64.9272 547.678 Q64.9272 553.153 61.8716 556.399 Q58.7843 559.614 53.6281 559.614 Q47.6125 559.614 44.5569 555.604 Q41.5014 551.561 41.5014 543.572 L41.5014 535.361 L40.9285 535.361 Q36.8862 535.361 34.6901 538.034 Q32.4621 540.676 32.4621 545.482 Q32.4621 548.538 33.1941 551.434 Q33.9262 554.33 35.3903 557.004 L29.9795 557.004 Q28.7381 553.789 28.1334 550.766 Q27.4968 547.742 27.4968 544.877 Q27.4968 537.143 31.5072 533.324 Q35.5176 529.504 43.6657 529.504 Z" fill="#000000" fill-rule="nonzero" fill-opacity="1" /><path clip-path="url(#clip890)" d="M14.5426 482.653 Q21.8632 486.918 29.0246 488.986 Q36.186 491.055 43.5384 491.055 Q50.8908 491.055 58.1159 488.986 Q65.3091 486.886 72.5979 482.653 L72.5979 487.745 Q65.1182 492.519 57.8931 494.907 Q50.668 497.262 43.5384 497.262 Q36.4406 497.262 29.2474 494.907 Q22.0542 492.551 14.5426 487.745 L14.5426 482.653 Z" fill="#000000" fill-rule="nonzero" fill-opacity="1" /><path clip-path="url(#clip890)" d="M29.7248 445.636 L35.1993 445.636 Q33.8307 448.119 33.1623 450.633 Q32.4621 453.116 32.4621 455.662 Q32.4621 461.359 36.0905 464.51 Q39.6872 467.661 46.212 467.661 Q52.7369 467.661 56.3653 464.51 Q59.9619 461.359 59.9619 455.662 Q59.9619 453.116 59.2935 450.633 Q58.5933 448.119 57.2247 445.636 L62.6355 445.636 Q63.7814 448.087 64.3543 450.729 Q64.9272 453.338 64.9272 456.299 Q64.9272 464.351 59.8664 469.094 Q54.8057 473.836 46.212 473.836 Q37.491 473.836 32.4939 469.062 Q27.4968 464.256 27.4968 455.917 Q27.4968 453.211 28.0697 450.633 Q28.6108 448.055 29.7248 445.636 Z" fill="#000000" fill-rule="nonzero" fill-opacity="1" /><path clip-path="url(#clip890)" d="M35.1993 407.696 Q31.2526 405.5 29.3747 402.445 Q27.4968 399.389 27.4968 395.251 Q27.4968 389.681 31.4117 386.658 Q35.2948 383.634 42.4881 383.634 L64.0042 383.634 L64.0042 389.522 L42.679 389.522 Q37.5546 389.522 35.072 391.336 Q32.5894 393.151 32.5894 396.875 Q32.5894 401.426 35.6131 404.068 Q38.6368 406.71 43.8567 406.71 L64.0042 406.71 L64.0042 412.598 L42.679 412.598 Q37.5228 412.598 35.072 414.412 Q32.5894 416.226 32.5894 420.014 Q32.5894 424.502 35.6449 427.144 Q38.6686 429.785 43.8567 429.785 L64.0042 429.785 L64.0042 435.674 L28.3562 435.674 L28.3562 429.785 L33.8944 429.785 Q30.616 427.78 29.0564 424.979 Q27.4968 422.178 27.4968 418.327 Q27.4968 414.444 29.4702 411.739 Q31.4436 409.001 35.1993 407.696 Z" fill="#000000" fill-rule="nonzero" fill-opacity="1" /><path clip-path="url(#clip890)" d="M14.5426 372.876 L14.5426 367.783 Q22.0542 363.009 29.2474 360.654 Q36.4406 358.267 43.5384 358.267 Q50.668 358.267 57.8931 360.654 Q65.1182 363.009 72.5979 367.783 L72.5979 372.876 Q65.3091 368.643 58.1159 366.574 Q50.8908 364.473 43.5384 364.473 Q36.186 364.473 29.0246 366.574 Q21.8632 368.643 14.5426 372.876 Z" fill="#000000" fill-rule="nonzero" fill-opacity="1" /><circle clip-path="url(#clip892)" cx="1789.44" cy="735.212" r="14.4" fill="#009af9" fill-rule="evenodd" fill-opacity="1" stroke="none"/>
<circle clip-path="url(#clip892)" cx="1454.13" cy="735.212" r="14.4" fill="#009af9" fill-rule="evenodd" fill-opacity="1" stroke="none"/>
<circle clip-path="url(#clip892)" cx="1733.55" cy="789.297" r="14.4" fill="#009af9" fill-rule="evenodd" fill-opacity="1" stroke="none"/>
<circle clip-path="url(#clip892)" cx="951.164" cy="1221.98" r="14.4" fill="#009af9" fill-rule="evenodd" fill-opacity="1" stroke="none"/>
<circle clip-path="url(#clip892)" cx="1510.01" cy="951.554" r="14.4" fill="#009af9" fill-rule="evenodd" fill-opacity="1" stroke="none"/>
<circle clip-path="url(#clip892)" cx="1062.93" cy="951.554" r="14.4" fill="#009af9" fill-rule="evenodd" fill-opacity="1" stroke="none"/>
<circle clip-path="url(#clip892)" cx="1398.24" cy="681.126" r="14.4" fill="#009af9" fill-rule="evenodd" fill-opacity="1" stroke="none"/>
<circle clip-path="url(#clip892)" cx="615.855" cy="1167.9" r="14.4" fill="#009af9" fill-rule="evenodd" fill-opacity="1" stroke="none"/>
<circle clip-path="url(#clip892)" cx="1565.9" cy="897.469" r="14.4" fill="#009af9" fill-rule="evenodd" fill-opacity="1" stroke="none"/>
<circle clip-path="url(#clip892)" cx="783.51" cy="1005.64" r="14.4" fill="#009af9" fill-rule="evenodd" fill-opacity="1" stroke="none"/>
<circle clip-path="url(#clip892)" cx="671.74" cy="1384.24" r="14.4" fill="#009af9" fill-rule="evenodd" fill-opacity="1" stroke="none"/>
<circle clip-path="url(#clip892)" cx="1174.7" cy="843.383" r="14.4" fill="#009af9" fill-rule="evenodd" fill-opacity="1" stroke="none"/>
<circle clip-path="url(#clip892)" cx="1230.59" cy="1276.07" r="14.4" fill="#009af9" fill-rule="evenodd" fill-opacity="1" stroke="none"/>
<circle clip-path="url(#clip892)" cx="1286.47" cy="897.469" r="14.4" fill="#009af9" fill-rule="evenodd" fill-opacity="1" stroke="none"/>
<circle clip-path="url(#clip892)" cx="1007.05" cy="897.469" r="14.4" fill="#009af9" fill-rule="evenodd" fill-opacity="1" stroke="none"/>
<circle clip-path="url(#clip892)" cx="1621.78" cy="789.297" r="14.4" fill="#009af9" fill-rule="evenodd" fill-opacity="1" stroke="none"/>
<circle clip-path="url(#clip892)" cx="1007.05" cy="843.383" r="14.4" fill="#009af9" fill-rule="evenodd" fill-opacity="1" stroke="none"/>
<circle clip-path="url(#clip892)" cx="1118.82" cy="1005.64" r="14.4" fill="#009af9" fill-rule="evenodd" fill-opacity="1" stroke="none"/>
<circle clip-path="url(#clip892)" cx="1342.36" cy="1276.07" r="14.4" fill="#009af9" fill-rule="evenodd" fill-opacity="1" stroke="none"/>
<circle clip-path="url(#clip892)" cx="1007.05" cy="1113.81" r="14.4" fill="#009af9" fill-rule="evenodd" fill-opacity="1" stroke="none"/>
<circle clip-path="url(#clip892)" cx="1174.7" cy="735.212" r="14.4" fill="#009af9" fill-rule="evenodd" fill-opacity="1" stroke="none"/>
<circle clip-path="url(#clip892)" cx="1286.47" cy="951.554" r="14.4" fill="#009af9" fill-rule="evenodd" fill-opacity="1" stroke="none"/>
<circle clip-path="url(#clip892)" cx="1398.24" cy="1113.81" r="14.4" fill="#009af9" fill-rule="evenodd" fill-opacity="1" stroke="none"/>
<circle clip-path="url(#clip892)" cx="1286.47" cy="951.554" r="14.4" fill="#009af9" fill-rule="evenodd" fill-opacity="1" stroke="none"/>
<circle clip-path="url(#clip892)" cx="1454.13" cy="897.469" r="14.4" fill="#009af9" fill-rule="evenodd" fill-opacity="1" stroke="none"/>
<circle clip-path="url(#clip892)" cx="1565.9" cy="843.383" r="14.4" fill="#009af9" fill-rule="evenodd" fill-opacity="1" stroke="none"/>
<circle clip-path="url(#clip892)" cx="1677.67" cy="951.554" r="14.4" fill="#009af9" fill-rule="evenodd" fill-opacity="1" stroke="none"/>
<circle clip-path="url(#clip892)" cx="1621.78" cy="843.383" r="14.4" fill="#009af9" fill-rule="evenodd" fill-opacity="1" stroke="none"/>
<circle clip-path="url(#clip892)" cx="1230.59" cy="897.469" r="14.4" fill="#009af9" fill-rule="evenodd" fill-opacity="1" stroke="none"/>
<circle clip-path="url(#clip892)" cx="1062.93" cy="1059.73" r="14.4" fill="#009af9" fill-rule="evenodd" fill-opacity="1" stroke="none"/>
<circle clip-path="url(#clip892)" cx="951.164" cy="1167.9" r="14.4" fill="#009af9" fill-rule="evenodd" fill-opacity="1" stroke="none"/>
<circle clip-path="url(#clip892)" cx="951.164" cy="1167.9" r="14.4" fill="#009af9" fill-rule="evenodd" fill-opacity="1" stroke="none"/>
<circle clip-path="url(#clip892)" cx="1118.82" cy="1005.64" r="14.4" fill="#009af9" fill-rule="evenodd" fill-opacity="1" stroke="none"/>
<circle clip-path="url(#clip892)" cx="1230.59" cy="1005.64" r="14.4" fill="#009af9" fill-rule="evenodd" fill-opacity="1" stroke="none"/>
<circle clip-path="url(#clip892)" cx="895.279" cy="843.383" r="14.4" fill="#009af9" fill-rule="evenodd" fill-opacity="1" stroke="none"/>
<circle clip-path="url(#clip892)" cx="1230.59" cy="627.041" r="14.4" fill="#009af9" fill-rule="evenodd" fill-opacity="1" stroke="none"/>
<circle clip-path="url(#clip892)" cx="1621.78" cy="789.297" r="14.4" fill="#009af9" fill-rule="evenodd" fill-opacity="1" stroke="none"/>
<circle clip-path="url(#clip892)" cx="1398.24" cy="1221.98" r="14.4" fill="#009af9" fill-rule="evenodd" fill-opacity="1" stroke="none"/>
<circle clip-path="url(#clip892)" cx="1007.05" cy="843.383" r="14.4" fill="#009af9" fill-rule="evenodd" fill-opacity="1" stroke="none"/>
<circle clip-path="url(#clip892)" cx="951.164" cy="1113.81" r="14.4" fill="#009af9" fill-rule="evenodd" fill-opacity="1" stroke="none"/>
<circle clip-path="url(#clip892)" cx="951.164" cy="1059.73" r="14.4" fill="#009af9" fill-rule="evenodd" fill-opacity="1" stroke="none"/>
<circle clip-path="url(#clip892)" cx="1286.47" cy="843.383" r="14.4" fill="#009af9" fill-rule="evenodd" fill-opacity="1" stroke="none"/>
<circle clip-path="url(#clip892)" cx="1118.82" cy="1059.73" r="14.4" fill="#009af9" fill-rule="evenodd" fill-opacity="1" stroke="none"/>
<circle clip-path="url(#clip892)" cx="671.74" cy="1221.98" r="14.4" fill="#009af9" fill-rule="evenodd" fill-opacity="1" stroke="none"/>
<circle clip-path="url(#clip892)" cx="1007.05" cy="1005.64" r="14.4" fill="#009af9" fill-rule="evenodd" fill-opacity="1" stroke="none"/>
<circle clip-path="url(#clip892)" cx="1062.93" cy="843.383" r="14.4" fill="#009af9" fill-rule="evenodd" fill-opacity="1" stroke="none"/>
<circle clip-path="url(#clip892)" cx="1062.93" cy="897.469" r="14.4" fill="#009af9" fill-rule="evenodd" fill-opacity="1" stroke="none"/>
<circle clip-path="url(#clip892)" cx="1342.36" cy="897.469" r="14.4" fill="#009af9" fill-rule="evenodd" fill-opacity="1" stroke="none"/>
<circle clip-path="url(#clip892)" cx="727.625" cy="1113.81" r="14.4" fill="#009af9" fill-rule="evenodd" fill-opacity="1" stroke="none"/>
<circle clip-path="url(#clip892)" cx="1062.93" cy="951.554" r="14.4" fill="#009af9" fill-rule="evenodd" fill-opacity="1" stroke="none"/>
<circle clip-path="url(#clip892)" cx="727.625" cy="572.955" r="14.4" fill="#e26f46" fill-rule="evenodd" fill-opacity="1" stroke="none"/>
<circle clip-path="url(#clip892)" cx="615.855" cy="843.383" r="14.4" fill="#e26f46" fill-rule="evenodd" fill-opacity="1" stroke="none"/>
<circle clip-path="url(#clip892)" cx="504.085" cy="735.212" r="14.4" fill="#e26f46" fill-rule="evenodd" fill-opacity="1" stroke="none"/>
<circle clip-path="url(#clip892)" cx="448.2" cy="789.297" r="14.4" fill="#e26f46" fill-rule="evenodd" fill-opacity="1" stroke="none"/>
<circle clip-path="url(#clip892)" cx="671.74" cy="518.87" r="14.4" fill="#e26f46" fill-rule="evenodd" fill-opacity="1" stroke="none"/>
<circle clip-path="url(#clip892)" cx="895.279" cy="356.613" r="14.4" fill="#e26f46" fill-rule="evenodd" fill-opacity="1" stroke="none"/>
<circle clip-path="url(#clip892)" cx="448.2" cy="627.041" r="14.4" fill="#e26f46" fill-rule="evenodd" fill-opacity="1" stroke="none"/>
<circle clip-path="url(#clip892)" cx="671.74" cy="627.041" r="14.4" fill="#e26f46" fill-rule="evenodd" fill-opacity="1" stroke="none"/>
<circle clip-path="url(#clip892)" cx="336.431" cy="897.469" r="14.4" fill="#e26f46" fill-rule="evenodd" fill-opacity="1" stroke="none"/>
<circle clip-path="url(#clip892)" cx="615.855" cy="789.297" r="14.4" fill="#e26f46" fill-rule="evenodd" fill-opacity="1" stroke="none"/>
<circle clip-path="url(#clip892)" cx="895.279" cy="464.784" r="14.4" fill="#e26f46" fill-rule="evenodd" fill-opacity="1" stroke="none"/>
<circle clip-path="url(#clip892)" cx="559.97" cy="627.041" r="14.4" fill="#e26f46" fill-rule="evenodd" fill-opacity="1" stroke="none"/>
<circle clip-path="url(#clip892)" cx="559.97" cy="843.383" r="14.4" fill="#e26f46" fill-rule="evenodd" fill-opacity="1" stroke="none"/>
<circle clip-path="url(#clip892)" cx="280.546" cy="843.383" r="14.4" fill="#e26f46" fill-rule="evenodd" fill-opacity="1" stroke="none"/>
<circle clip-path="url(#clip892)" cx="1118.82" cy="302.528" r="14.4" fill="#e26f46" fill-rule="evenodd" fill-opacity="1" stroke="none"/>
<circle clip-path="url(#clip892)" cx="1062.93" cy="86.1857" r="14.4" fill="#e26f46" fill-rule="evenodd" fill-opacity="1" stroke="none"/>
<circle clip-path="url(#clip892)" cx="895.279" cy="356.613" r="14.4" fill="#e26f46" fill-rule="evenodd" fill-opacity="1" stroke="none"/>
<circle clip-path="url(#clip892)" cx="727.625" cy="572.955" r="14.4" fill="#e26f46" fill-rule="evenodd" fill-opacity="1" stroke="none"/>
<circle clip-path="url(#clip892)" cx="1062.93" cy="410.699" r="14.4" fill="#e26f46" fill-rule="evenodd" fill-opacity="1" stroke="none"/>
<circle clip-path="url(#clip892)" cx="727.625" cy="410.699" r="14.4" fill="#e26f46" fill-rule="evenodd" fill-opacity="1" stroke="none"/>
<circle clip-path="url(#clip892)" cx="895.279" cy="627.041" r="14.4" fill="#e26f46" fill-rule="evenodd" fill-opacity="1" stroke="none"/>
<circle clip-path="url(#clip892)" cx="727.625" cy="464.784" r="14.4" fill="#e26f46" fill-rule="evenodd" fill-opacity="1" stroke="none"/>
<circle clip-path="url(#clip892)" cx="448.2" cy="518.87" r="14.4" fill="#e26f46" fill-rule="evenodd" fill-opacity="1" stroke="none"/>
<circle clip-path="url(#clip892)" cx="727.625" cy="681.126" r="14.4" fill="#e26f46" fill-rule="evenodd" fill-opacity="1" stroke="none"/>
<circle clip-path="url(#clip892)" cx="559.97" cy="627.041" r="14.4" fill="#e26f46" fill-rule="evenodd" fill-opacity="1" stroke="none"/>
<circle clip-path="url(#clip892)" cx="671.74" cy="843.383" r="14.4" fill="#e26f46" fill-rule="evenodd" fill-opacity="1" stroke="none"/>
<circle clip-path="url(#clip892)" cx="671.74" cy="627.041" r="14.4" fill="#e26f46" fill-rule="evenodd" fill-opacity="1" stroke="none"/>
<circle clip-path="url(#clip892)" cx="783.51" cy="572.955" r="14.4" fill="#e26f46" fill-rule="evenodd" fill-opacity="1" stroke="none"/>
<circle clip-path="url(#clip892)" cx="783.51" cy="627.041" r="14.4" fill="#e26f46" fill-rule="evenodd" fill-opacity="1" stroke="none"/>
<circle clip-path="url(#clip892)" cx="504.085" cy="735.212" r="14.4" fill="#e26f46" fill-rule="evenodd" fill-opacity="1" stroke="none"/>
<circle clip-path="url(#clip892)" cx="559.97" cy="789.297" r="14.4" fill="#e26f46" fill-rule="evenodd" fill-opacity="1" stroke="none"/>
<circle clip-path="url(#clip892)" cx="895.279" cy="627.041" r="14.4" fill="#e26f46" fill-rule="evenodd" fill-opacity="1" stroke="none"/>
<circle clip-path="url(#clip892)" cx="783.51" cy="248.442" r="14.4" fill="#e26f46" fill-rule="evenodd" fill-opacity="1" stroke="none"/>
<circle clip-path="url(#clip892)" cx="951.164" cy="194.357" r="14.4" fill="#e26f46" fill-rule="evenodd" fill-opacity="1" stroke="none"/>
<circle clip-path="url(#clip892)" cx="615.855" cy="789.297" r="14.4" fill="#e26f46" fill-rule="evenodd" fill-opacity="1" stroke="none"/>
<circle clip-path="url(#clip892)" cx="671.74" cy="735.212" r="14.4" fill="#e26f46" fill-rule="evenodd" fill-opacity="1" stroke="none"/>
<circle clip-path="url(#clip892)" cx="951.164" cy="572.955" r="14.4" fill="#e26f46" fill-rule="evenodd" fill-opacity="1" stroke="none"/>
<circle clip-path="url(#clip892)" cx="615.855" cy="789.297" r="14.4" fill="#e26f46" fill-rule="evenodd" fill-opacity="1" stroke="none"/>
<circle clip-path="url(#clip892)" cx="336.431" cy="843.383" r="14.4" fill="#e26f46" fill-rule="evenodd" fill-opacity="1" stroke="none"/>
<circle clip-path="url(#clip892)" cx="727.625" cy="627.041" r="14.4" fill="#e26f46" fill-rule="evenodd" fill-opacity="1" stroke="none"/>
<circle clip-path="url(#clip892)" cx="671.74" cy="572.955" r="14.4" fill="#e26f46" fill-rule="evenodd" fill-opacity="1" stroke="none"/>
<circle clip-path="url(#clip892)" cx="392.316" cy="1221.98" r="14.4" fill="#e26f46" fill-rule="evenodd" fill-opacity="1" stroke="none"/>
<circle clip-path="url(#clip892)" cx="336.431" cy="735.212" r="14.4" fill="#e26f46" fill-rule="evenodd" fill-opacity="1" stroke="none"/>
<circle clip-path="url(#clip892)" cx="671.74" cy="572.955" r="14.4" fill="#e26f46" fill-rule="evenodd" fill-opacity="1" stroke="none"/>
<circle clip-path="url(#clip892)" cx="727.625" cy="410.699" r="14.4" fill="#e26f46" fill-rule="evenodd" fill-opacity="1" stroke="none"/>
<circle clip-path="url(#clip892)" cx="559.97" cy="843.383" r="14.4" fill="#e26f46" fill-rule="evenodd" fill-opacity="1" stroke="none"/>
<circle clip-path="url(#clip892)" cx="727.625" cy="410.699" r="14.4" fill="#e26f46" fill-rule="evenodd" fill-opacity="1" stroke="none"/>
<circle clip-path="url(#clip892)" cx="448.2" cy="735.212" r="14.4" fill="#e26f46" fill-rule="evenodd" fill-opacity="1" stroke="none"/>
<circle clip-path="url(#clip892)" cx="839.394" cy="464.784" r="14.4" fill="#e26f46" fill-rule="evenodd" fill-opacity="1" stroke="none"/>
<circle clip-path="url(#clip892)" cx="671.74" cy="681.126" r="14.4" fill="#e26f46" fill-rule="evenodd" fill-opacity="1" stroke="none"/>
<circle clip-path="url(#clip892)" cx="1398.24" cy="681.126" r="14.4" fill="#3da44d" fill-rule="evenodd" fill-opacity="1" stroke="none"/>
<circle clip-path="url(#clip892)" cx="1118.82" cy="1005.64" r="14.4" fill="#3da44d" fill-rule="evenodd" fill-opacity="1" stroke="none"/>
<circle clip-path="url(#clip892)" cx="1845.32" cy="843.383" r="14.4" fill="#3da44d" fill-rule="evenodd" fill-opacity="1" stroke="none"/>
<circle clip-path="url(#clip892)" cx="1398.24" cy="897.469" r="14.4" fill="#3da44d" fill-rule="evenodd" fill-opacity="1" stroke="none"/>
<circle clip-path="url(#clip892)" cx="1510.01" cy="843.383" r="14.4" fill="#3da44d" fill-rule="evenodd" fill-opacity="1" stroke="none"/>
<circle clip-path="url(#clip892)" cx="2124.75" cy="843.383" r="14.4" fill="#3da44d" fill-rule="evenodd" fill-opacity="1" stroke="none"/>
<circle clip-path="url(#clip892)" cx="615.855" cy="1113.81" r="14.4" fill="#3da44d" fill-rule="evenodd" fill-opacity="1" stroke="none"/>
<circle clip-path="url(#clip892)" cx="1957.09" cy="897.469" r="14.4" fill="#3da44d" fill-rule="evenodd" fill-opacity="1" stroke="none"/>
<circle clip-path="url(#clip892)" cx="1621.78" cy="1113.81" r="14.4" fill="#3da44d" fill-rule="evenodd" fill-opacity="1" stroke="none"/>
<circle clip-path="url(#clip892)" cx="1901.21" cy="518.87" r="14.4" fill="#3da44d" fill-rule="evenodd" fill-opacity="1" stroke="none"/>
<circle clip-path="url(#clip892)" cx="1510.01" cy="735.212" r="14.4" fill="#3da44d" fill-rule="evenodd" fill-opacity="1" stroke="none"/>
<circle clip-path="url(#clip892)" cx="1454.13" cy="1005.64" r="14.4" fill="#3da44d" fill-rule="evenodd" fill-opacity="1" stroke="none"/>
<circle clip-path="url(#clip892)" cx="1677.67" cy="843.383" r="14.4" fill="#3da44d" fill-rule="evenodd" fill-opacity="1" stroke="none"/>
<circle clip-path="url(#clip892)" cx="1062.93" cy="1113.81" r="14.4" fill="#3da44d" fill-rule="evenodd" fill-opacity="1" stroke="none"/>
<circle clip-path="url(#clip892)" cx="1118.82" cy="951.554" r="14.4" fill="#3da44d" fill-rule="evenodd" fill-opacity="1" stroke="none"/>
<circle clip-path="url(#clip892)" cx="1454.13" cy="735.212" r="14.4" fill="#3da44d" fill-rule="evenodd" fill-opacity="1" stroke="none"/>
<circle clip-path="url(#clip892)" cx="1510.01" cy="843.383" r="14.4" fill="#3da44d" fill-rule="evenodd" fill-opacity="1" stroke="none"/>
<circle clip-path="url(#clip892)" cx="2180.63" cy="410.699" r="14.4" fill="#3da44d" fill-rule="evenodd" fill-opacity="1" stroke="none"/>
<circle clip-path="url(#clip892)" cx="2180.63" cy="1059.73" r="14.4" fill="#3da44d" fill-rule="evenodd" fill-opacity="1" stroke="none"/>
<circle clip-path="url(#clip892)" cx="1230.59" cy="1276.07" r="14.4" fill="#3da44d" fill-rule="evenodd" fill-opacity="1" stroke="none"/>
<circle clip-path="url(#clip892)" cx="1733.55" cy="735.212" r="14.4" fill="#3da44d" fill-rule="evenodd" fill-opacity="1" stroke="none"/>
<circle clip-path="url(#clip892)" cx="1007.05" cy="951.554" r="14.4" fill="#3da44d" fill-rule="evenodd" fill-opacity="1" stroke="none"/>
<circle clip-path="url(#clip892)" cx="2180.63" cy="951.554" r="14.4" fill="#3da44d" fill-rule="evenodd" fill-opacity="1" stroke="none"/>
<circle clip-path="url(#clip892)" cx="1398.24" cy="1005.64" r="14.4" fill="#3da44d" fill-rule="evenodd" fill-opacity="1" stroke="none"/>
<circle clip-path="url(#clip892)" cx="1621.78" cy="681.126" r="14.4" fill="#3da44d" fill-rule="evenodd" fill-opacity="1" stroke="none"/>
<circle clip-path="url(#clip892)" cx="1901.21" cy="735.212" r="14.4" fill="#3da44d" fill-rule="evenodd" fill-opacity="1" stroke="none"/>
<circle clip-path="url(#clip892)" cx="1342.36" cy="951.554" r="14.4" fill="#3da44d" fill-rule="evenodd" fill-opacity="1" stroke="none"/>
<circle clip-path="url(#clip892)" cx="1286.47" cy="843.383" r="14.4" fill="#3da44d" fill-rule="evenodd" fill-opacity="1" stroke="none"/>
<circle clip-path="url(#clip892)" cx="1454.13" cy="951.554" r="14.4" fill="#3da44d" fill-rule="evenodd" fill-opacity="1" stroke="none"/>
<circle clip-path="url(#clip892)" cx="1901.21" cy="843.383" r="14.4" fill="#3da44d" fill-rule="evenodd" fill-opacity="1" stroke="none"/>
<circle clip-path="url(#clip892)" cx="2012.98" cy="951.554" r="14.4" fill="#3da44d" fill-rule="evenodd" fill-opacity="1" stroke="none"/>
<circle clip-path="url(#clip892)" cx="2292.4" cy="410.699" r="14.4" fill="#3da44d" fill-rule="evenodd" fill-opacity="1" stroke="none"/>
<circle clip-path="url(#clip892)" cx="1454.13" cy="951.554" r="14.4" fill="#3da44d" fill-rule="evenodd" fill-opacity="1" stroke="none"/>
<circle clip-path="url(#clip892)" cx="1398.24" cy="951.554" r="14.4" fill="#3da44d" fill-rule="evenodd" fill-opacity="1" stroke="none"/>
<circle clip-path="url(#clip892)" cx="1286.47" cy="1059.73" r="14.4" fill="#3da44d" fill-rule="evenodd" fill-opacity="1" stroke="none"/>
<circle clip-path="url(#clip892)" cx="2180.63" cy="843.383" r="14.4" fill="#3da44d" fill-rule="evenodd" fill-opacity="1" stroke="none"/>
<circle clip-path="url(#clip892)" cx="1398.24" cy="627.041" r="14.4" fill="#3da44d" fill-rule="evenodd" fill-opacity="1" stroke="none"/>
<circle clip-path="url(#clip892)" cx="1454.13" cy="789.297" r="14.4" fill="#3da44d" fill-rule="evenodd" fill-opacity="1" stroke="none"/>
<circle clip-path="url(#clip892)" cx="1230.59" cy="843.383" r="14.4" fill="#3da44d" fill-rule="evenodd" fill-opacity="1" stroke="none"/>
<circle clip-path="url(#clip892)" cx="1733.55" cy="789.297" r="14.4" fill="#3da44d" fill-rule="evenodd" fill-opacity="1" stroke="none"/>
<circle clip-path="url(#clip892)" cx="1621.78" cy="789.297" r="14.4" fill="#3da44d" fill-rule="evenodd" fill-opacity="1" stroke="none"/>
<circle clip-path="url(#clip892)" cx="1733.55" cy="789.297" r="14.4" fill="#3da44d" fill-rule="evenodd" fill-opacity="1" stroke="none"/>
<circle clip-path="url(#clip892)" cx="1118.82" cy="1005.64" r="14.4" fill="#3da44d" fill-rule="evenodd" fill-opacity="1" stroke="none"/>
<circle clip-path="url(#clip892)" cx="1677.67" cy="735.212" r="14.4" fill="#3da44d" fill-rule="evenodd" fill-opacity="1" stroke="none"/>
<circle clip-path="url(#clip892)" cx="1621.78" cy="681.126" r="14.4" fill="#3da44d" fill-rule="evenodd" fill-opacity="1" stroke="none"/>
<circle clip-path="url(#clip892)" cx="1621.78" cy="843.383" r="14.4" fill="#3da44d" fill-rule="evenodd" fill-opacity="1" stroke="none"/>
<circle clip-path="url(#clip892)" cx="1398.24" cy="1113.81" r="14.4" fill="#3da44d" fill-rule="evenodd" fill-opacity="1" stroke="none"/>
<circle clip-path="url(#clip892)" cx="1510.01" cy="843.383" r="14.4" fill="#3da44d" fill-rule="evenodd" fill-opacity="1" stroke="none"/>
<circle clip-path="url(#clip892)" cx="1342.36" cy="627.041" r="14.4" fill="#3da44d" fill-rule="evenodd" fill-opacity="1" stroke="none"/>
<circle clip-path="url(#clip892)" cx="1174.7" cy="843.383" r="14.4" fill="#3da44d" fill-rule="evenodd" fill-opacity="1" stroke="none"/>
<path clip-path="url(#clip890)" d="M1754.57 300.469 L2281.67 300.469 L2281.67 93.1086 L1754.57 93.1086  Z" fill="#ffffff" fill-rule="evenodd" fill-opacity="1"/>
<polyline clip-path="url(#clip890)" style="stroke:#000000; stroke-linecap:round; stroke-linejoin:round; stroke-width:4; stroke-opacity:1; fill:none" points="1754.57,300.469 2281.67,300.469 2281.67,93.1086 1754.57,93.1086 1754.57,300.469 "/>
<circle clip-path="url(#clip890)" cx="1849.35" cy="144.949" r="23.04" fill="#009af9" fill-rule="evenodd" fill-opacity="1" stroke="none"/>
<path clip-path="url(#clip890)" d="M1944.13 127.669 L1948.81 127.669 L1948.81 162.229 L1944.13 162.229 L1944.13 127.669 Z" fill="#000000" fill-rule="nonzero" fill-opacity="1" /><path clip-path="url(#clip890)" d="M1972.95 140.284 Q1972.24 139.868 1971.38 139.682 Q1970.55 139.474 1969.53 139.474 Q1965.92 139.474 1963.97 141.835 Q1962.05 144.173 1962.05 148.571 L1962.05 162.229 L1957.77 162.229 L1957.77 136.303 L1962.05 136.303 L1962.05 140.331 Q1963.39 137.969 1965.55 136.835 Q1967.7 135.678 1970.78 135.678 Q1971.22 135.678 1971.75 135.747 Q1972.28 135.794 1972.93 135.909 L1972.95 140.284 Z" fill="#000000" fill-rule="nonzero" fill-opacity="1" /><path clip-path="url(#clip890)" d="M1977.42 136.303 L1981.68 136.303 L1981.68 162.229 L1977.42 162.229 L1977.42 136.303 M1977.42 126.21 L1981.68 126.21 L1981.68 131.604 L1977.42 131.604 L1977.42 126.21 Z" fill="#000000" fill-rule="nonzero" fill-opacity="1" /><path clip-path="url(#clip890)" d="M2007.12 137.067 L2007.12 141.094 Q2005.31 140.169 2003.37 139.706 Q2001.43 139.243 1999.34 139.243 Q1996.17 139.243 1994.57 140.215 Q1993 141.187 1993 143.131 Q1993 144.613 1994.13 145.469 Q1995.27 146.303 1998.69 147.067 L2000.15 147.391 Q2004.69 148.363 2006.59 150.145 Q2008.51 151.905 2008.51 155.076 Q2008.51 158.687 2005.64 160.793 Q2002.79 162.9 1997.79 162.9 Q1995.71 162.9 1993.44 162.483 Q1991.19 162.09 1988.69 161.28 L1988.69 156.881 Q1991.06 158.108 1993.35 158.733 Q1995.64 159.335 1997.88 159.335 Q2000.89 159.335 2002.51 158.317 Q2004.13 157.275 2004.13 155.4 Q2004.13 153.664 2002.95 152.738 Q2001.8 151.812 1997.84 150.956 L1996.36 150.608 Q1992.4 149.775 1990.64 148.062 Q1988.88 146.326 1988.88 143.317 Q1988.88 139.659 1991.47 137.669 Q1994.06 135.678 1998.83 135.678 Q2001.19 135.678 2003.28 136.025 Q2005.36 136.372 2007.12 137.067 Z" fill="#000000" fill-rule="nonzero" fill-opacity="1" /><path clip-path="url(#clip890)" d="M2013.14 147.344 L2025.62 147.344 L2025.62 151.141 L2013.14 151.141 L2013.14 147.344 Z" fill="#000000" fill-rule="nonzero" fill-opacity="1" /><path clip-path="url(#clip890)" d="M2028.07 136.303 L2032.58 136.303 L2040.68 158.062 L2048.79 136.303 L2053.3 136.303 L2043.58 162.229 L2037.79 162.229 L2028.07 136.303 Z" fill="#000000" fill-rule="nonzero" fill-opacity="1" /><path clip-path="url(#clip890)" d="M2081.36 148.201 L2081.36 150.284 L2061.77 150.284 Q2062.05 154.682 2064.41 156.997 Q2066.8 159.289 2071.03 159.289 Q2073.49 159.289 2075.78 158.687 Q2078.09 158.085 2080.36 156.881 L2080.36 160.909 Q2078.07 161.881 2075.66 162.391 Q2073.25 162.9 2070.78 162.9 Q2064.57 162.9 2060.94 159.289 Q2057.33 155.678 2057.33 149.52 Q2057.33 143.155 2060.75 139.428 Q2064.2 135.678 2070.04 135.678 Q2075.27 135.678 2078.3 139.057 Q2081.36 142.414 2081.36 148.201 M2077.1 146.951 Q2077.05 143.456 2075.13 141.372 Q2073.23 139.289 2070.08 139.289 Q2066.52 139.289 2064.37 141.303 Q2062.24 143.317 2061.91 146.974 L2077.1 146.951 Z" fill="#000000" fill-rule="nonzero" fill-opacity="1" /><path clip-path="url(#clip890)" d="M2103.37 140.284 Q2102.65 139.868 2101.8 139.682 Q2100.96 139.474 2099.94 139.474 Q2096.33 139.474 2094.39 141.835 Q2092.47 144.173 2092.47 148.571 L2092.47 162.229 L2088.18 162.229 L2088.18 136.303 L2092.47 136.303 L2092.47 140.331 Q2093.81 137.969 2095.96 136.835 Q2098.11 135.678 2101.19 135.678 Q2101.63 135.678 2102.17 135.747 Q2102.7 135.794 2103.35 135.909 L2103.37 140.284 Z" fill="#000000" fill-rule="nonzero" fill-opacity="1" /><path clip-path="url(#clip890)" d="M2124.36 137.067 L2124.36 141.094 Q2122.56 140.169 2120.61 139.706 Q2118.67 139.243 2116.59 139.243 Q2113.42 139.243 2111.82 140.215 Q2110.24 141.187 2110.24 143.131 Q2110.24 144.613 2111.38 145.469 Q2112.51 146.303 2115.94 147.067 L2117.4 147.391 Q2121.93 148.363 2123.83 150.145 Q2125.75 151.905 2125.75 155.076 Q2125.75 158.687 2122.88 160.793 Q2120.04 162.9 2115.04 162.9 Q2112.95 162.9 2110.68 162.483 Q2108.44 162.09 2105.94 161.28 L2105.94 156.881 Q2108.3 158.108 2110.59 158.733 Q2112.88 159.335 2115.13 159.335 Q2118.14 159.335 2119.76 158.317 Q2121.38 157.275 2121.38 155.4 Q2121.38 153.664 2120.2 152.738 Q2119.04 151.812 2115.08 150.956 L2113.6 150.608 Q2109.64 149.775 2107.88 148.062 Q2106.12 146.326 2106.12 143.317 Q2106.12 139.659 2108.72 137.669 Q2111.31 135.678 2116.08 135.678 Q2118.44 135.678 2120.52 136.025 Q2122.61 136.372 2124.36 137.067 Z" fill="#000000" fill-rule="nonzero" fill-opacity="1" /><path clip-path="url(#clip890)" d="M2132.54 136.303 L2136.8 136.303 L2136.8 162.229 L2132.54 162.229 L2132.54 136.303 M2132.54 126.21 L2136.8 126.21 L2136.8 131.604 L2132.54 131.604 L2132.54 126.21 Z" fill="#000000" fill-rule="nonzero" fill-opacity="1" /><path clip-path="url(#clip890)" d="M2164.36 137.298 L2164.36 141.28 Q2162.56 140.284 2160.73 139.798 Q2158.92 139.289 2157.07 139.289 Q2152.93 139.289 2150.64 141.928 Q2148.35 144.544 2148.35 149.289 Q2148.35 154.034 2150.64 156.673 Q2152.93 159.289 2157.07 159.289 Q2158.92 159.289 2160.73 158.803 Q2162.56 158.293 2164.36 157.298 L2164.36 161.233 Q2162.58 162.067 2160.66 162.483 Q2158.76 162.9 2156.61 162.9 Q2150.75 162.9 2147.3 159.219 Q2143.86 155.539 2143.86 149.289 Q2143.86 142.946 2147.33 139.312 Q2150.82 135.678 2156.89 135.678 Q2158.86 135.678 2160.73 136.095 Q2162.61 136.488 2164.36 137.298 Z" fill="#000000" fill-rule="nonzero" fill-opacity="1" /><path clip-path="url(#clip890)" d="M2181.82 139.289 Q2178.39 139.289 2176.4 141.974 Q2174.41 144.636 2174.41 149.289 Q2174.41 153.942 2176.38 156.627 Q2178.37 159.289 2181.82 159.289 Q2185.22 159.289 2187.21 156.604 Q2189.2 153.918 2189.2 149.289 Q2189.2 144.682 2187.21 141.997 Q2185.22 139.289 2181.82 139.289 M2181.82 135.678 Q2187.37 135.678 2190.55 139.289 Q2193.72 142.9 2193.72 149.289 Q2193.72 155.655 2190.55 159.289 Q2187.37 162.9 2181.82 162.9 Q2176.24 162.9 2173.07 159.289 Q2169.92 155.655 2169.92 149.289 Q2169.92 142.9 2173.07 139.289 Q2176.24 135.678 2181.82 135.678 Z" fill="#000000" fill-rule="nonzero" fill-opacity="1" /><path clip-path="url(#clip890)" d="M2200.78 126.21 L2205.04 126.21 L2205.04 162.229 L2200.78 162.229 L2200.78 126.21 Z" fill="#000000" fill-rule="nonzero" fill-opacity="1" /><path clip-path="url(#clip890)" d="M2223.99 139.289 Q2220.57 139.289 2218.58 141.974 Q2216.59 144.636 2216.59 149.289 Q2216.59 153.942 2218.55 156.627 Q2220.54 159.289 2223.99 159.289 Q2227.4 159.289 2229.39 156.604 Q2231.38 153.918 2231.38 149.289 Q2231.38 144.682 2229.39 141.997 Q2227.4 139.289 2223.99 139.289 M2223.99 135.678 Q2229.55 135.678 2232.72 139.289 Q2235.89 142.9 2235.89 149.289 Q2235.89 155.655 2232.72 159.289 Q2229.55 162.9 2223.99 162.9 Q2218.42 162.9 2215.24 159.289 Q2212.1 155.655 2212.1 149.289 Q2212.1 142.9 2215.24 139.289 Q2218.42 135.678 2223.99 135.678 Z" fill="#000000" fill-rule="nonzero" fill-opacity="1" /><path clip-path="url(#clip890)" d="M2257.98 140.284 Q2257.26 139.868 2256.4 139.682 Q2255.57 139.474 2254.55 139.474 Q2250.94 139.474 2248.99 141.835 Q2247.07 144.173 2247.07 148.571 L2247.07 162.229 L2242.79 162.229 L2242.79 136.303 L2247.07 136.303 L2247.07 140.331 Q2248.42 137.969 2250.57 136.835 Q2252.72 135.678 2255.8 135.678 Q2256.24 135.678 2256.77 135.747 Q2257.3 135.794 2257.95 135.909 L2257.98 140.284 Z" fill="#000000" fill-rule="nonzero" fill-opacity="1" /><circle clip-path="url(#clip890)" cx="1849.35" cy="196.789" r="23.04" fill="#e26f46" fill-rule="evenodd" fill-opacity="1" stroke="none"/>
<path clip-path="url(#clip890)" d="M1944.13 179.509 L1948.81 179.509 L1948.81 214.069 L1944.13 214.069 L1944.13 179.509 Z" fill="#000000" fill-rule="nonzero" fill-opacity="1" /><path clip-path="url(#clip890)" d="M1972.95 192.124 Q1972.24 191.708 1971.38 191.522 Q1970.55 191.314 1969.53 191.314 Q1965.92 191.314 1963.97 193.675 Q1962.05 196.013 1962.05 200.411 L1962.05 214.069 L1957.77 214.069 L1957.77 188.143 L1962.05 188.143 L1962.05 192.171 Q1963.39 189.809 1965.55 188.675 Q1967.7 187.518 1970.78 187.518 Q1971.22 187.518 1971.75 187.587 Q1972.28 187.634 1972.93 187.749 L1972.95 192.124 Z" fill="#000000" fill-rule="nonzero" fill-opacity="1" /><path clip-path="url(#clip890)" d="M1977.42 188.143 L1981.68 188.143 L1981.68 214.069 L1977.42 214.069 L1977.42 188.143 M1977.42 178.05 L1981.68 178.05 L1981.68 183.444 L1977.42 183.444 L1977.42 178.05 Z" fill="#000000" fill-rule="nonzero" fill-opacity="1" /><path clip-path="url(#clip890)" d="M2007.12 188.907 L2007.12 192.934 Q2005.31 192.009 2003.37 191.546 Q2001.43 191.083 1999.34 191.083 Q1996.17 191.083 1994.57 192.055 Q1993 193.027 1993 194.971 Q1993 196.453 1994.13 197.309 Q1995.27 198.143 1998.69 198.907 L2000.15 199.231 Q2004.69 200.203 2006.59 201.985 Q2008.51 203.745 2008.51 206.916 Q2008.51 210.527 2005.64 212.633 Q2002.79 214.74 1997.79 214.74 Q1995.71 214.74 1993.44 214.323 Q1991.19 213.93 1988.69 213.12 L1988.69 208.721 Q1991.06 209.948 1993.35 210.573 Q1995.64 211.175 1997.88 211.175 Q2000.89 211.175 2002.51 210.157 Q2004.13 209.115 2004.13 207.24 Q2004.13 205.504 2002.95 204.578 Q2001.8 203.652 1997.84 202.796 L1996.36 202.448 Q1992.4 201.615 1990.64 199.902 Q1988.88 198.166 1988.88 195.157 Q1988.88 191.499 1991.47 189.509 Q1994.06 187.518 1998.83 187.518 Q2001.19 187.518 2003.28 187.865 Q2005.36 188.212 2007.12 188.907 Z" fill="#000000" fill-rule="nonzero" fill-opacity="1" /><path clip-path="url(#clip890)" d="M2013.14 199.184 L2025.62 199.184 L2025.62 202.981 L2013.14 202.981 L2013.14 199.184 Z" fill="#000000" fill-rule="nonzero" fill-opacity="1" /><path clip-path="url(#clip890)" d="M2048.93 188.907 L2048.93 192.934 Q2047.12 192.009 2045.18 191.546 Q2043.23 191.083 2041.15 191.083 Q2037.98 191.083 2036.38 192.055 Q2034.81 193.027 2034.81 194.971 Q2034.81 196.453 2035.94 197.309 Q2037.07 198.143 2040.5 198.907 L2041.96 199.231 Q2046.49 200.203 2048.39 201.985 Q2050.31 203.745 2050.31 206.916 Q2050.31 210.527 2047.44 212.633 Q2044.6 214.74 2039.6 214.74 Q2037.51 214.74 2035.24 214.323 Q2033 213.93 2030.5 213.12 L2030.5 208.721 Q2032.86 209.948 2035.15 210.573 Q2037.44 211.175 2039.69 211.175 Q2042.7 211.175 2044.32 210.157 Q2045.94 209.115 2045.94 207.24 Q2045.94 205.504 2044.76 204.578 Q2043.6 203.652 2039.64 202.796 L2038.16 202.448 Q2034.2 201.615 2032.44 199.902 Q2030.68 198.166 2030.68 195.157 Q2030.68 191.499 2033.28 189.509 Q2035.87 187.518 2040.64 187.518 Q2043 187.518 2045.08 187.865 Q2047.17 188.212 2048.93 188.907 Z" fill="#000000" fill-rule="nonzero" fill-opacity="1" /><path clip-path="url(#clip890)" d="M2079.27 200.041 L2079.27 202.124 L2059.69 202.124 Q2059.97 206.522 2062.33 208.837 Q2064.71 211.129 2068.95 211.129 Q2071.4 211.129 2073.69 210.527 Q2076.01 209.925 2078.28 208.721 L2078.28 212.749 Q2075.99 213.721 2073.58 214.231 Q2071.17 214.74 2068.69 214.74 Q2062.49 214.74 2058.86 211.129 Q2055.24 207.518 2055.24 201.36 Q2055.24 194.995 2058.67 191.268 Q2062.12 187.518 2067.95 187.518 Q2073.18 187.518 2076.22 190.897 Q2079.27 194.254 2079.27 200.041 M2075.01 198.791 Q2074.97 195.296 2073.05 193.212 Q2071.15 191.129 2068 191.129 Q2064.43 191.129 2062.28 193.143 Q2060.15 195.157 2059.83 198.814 L2075.01 198.791 Z" fill="#000000" fill-rule="nonzero" fill-opacity="1" /><path clip-path="url(#clip890)" d="M2090.48 180.782 L2090.48 188.143 L2099.25 188.143 L2099.25 191.453 L2090.48 191.453 L2090.48 205.527 Q2090.48 208.698 2091.33 209.601 Q2092.21 210.504 2094.87 210.504 L2099.25 210.504 L2099.25 214.069 L2094.87 214.069 Q2089.94 214.069 2088.07 212.24 Q2086.19 210.388 2086.19 205.527 L2086.19 191.453 L2083.07 191.453 L2083.07 188.143 L2086.19 188.143 L2086.19 180.782 L2090.48 180.782 Z" fill="#000000" fill-rule="nonzero" fill-opacity="1" /><path clip-path="url(#clip890)" d="M2114.9 191.129 Q2111.47 191.129 2109.48 193.814 Q2107.49 196.476 2107.49 201.129 Q2107.49 205.782 2109.46 208.467 Q2111.45 211.129 2114.9 211.129 Q2118.3 211.129 2120.29 208.444 Q2122.28 205.758 2122.28 201.129 Q2122.28 196.522 2120.29 193.837 Q2118.3 191.129 2114.9 191.129 M2114.9 187.518 Q2120.45 187.518 2123.62 191.129 Q2126.8 194.74 2126.8 201.129 Q2126.8 207.495 2123.62 211.129 Q2120.45 214.74 2114.9 214.74 Q2109.32 214.74 2106.15 211.129 Q2103 207.495 2103 201.129 Q2103 194.74 2106.15 191.129 Q2109.32 187.518 2114.9 187.518 Z" fill="#000000" fill-rule="nonzero" fill-opacity="1" /><path clip-path="url(#clip890)" d="M2150.38 188.907 L2150.38 192.934 Q2148.58 192.009 2146.63 191.546 Q2144.69 191.083 2142.61 191.083 Q2139.43 191.083 2137.84 192.055 Q2136.26 193.027 2136.26 194.971 Q2136.26 196.453 2137.4 197.309 Q2138.53 198.143 2141.96 198.907 L2143.42 199.231 Q2147.95 200.203 2149.85 201.985 Q2151.77 203.745 2151.77 206.916 Q2151.77 210.527 2148.9 212.633 Q2146.05 214.74 2141.05 214.74 Q2138.97 214.74 2136.7 214.323 Q2134.46 213.93 2131.96 213.12 L2131.96 208.721 Q2134.32 209.948 2136.61 210.573 Q2138.9 211.175 2141.15 211.175 Q2144.16 211.175 2145.78 210.157 Q2147.4 209.115 2147.4 207.24 Q2147.4 205.504 2146.22 204.578 Q2145.06 203.652 2141.1 202.796 L2139.62 202.448 Q2135.66 201.615 2133.9 199.902 Q2132.14 198.166 2132.14 195.157 Q2132.14 191.499 2134.74 189.509 Q2137.33 187.518 2142.1 187.518 Q2144.46 187.518 2146.54 187.865 Q2148.62 188.212 2150.38 188.907 Z" fill="#000000" fill-rule="nonzero" fill-opacity="1" /><path clip-path="url(#clip890)" d="M2170.34 201.036 Q2165.17 201.036 2163.18 202.217 Q2161.19 203.397 2161.19 206.245 Q2161.19 208.513 2162.67 209.856 Q2164.18 211.175 2166.75 211.175 Q2170.29 211.175 2172.42 208.675 Q2174.57 206.152 2174.57 201.985 L2174.57 201.036 L2170.34 201.036 M2178.83 199.277 L2178.83 214.069 L2174.57 214.069 L2174.57 210.133 Q2173.11 212.495 2170.94 213.629 Q2168.76 214.74 2165.61 214.74 Q2161.63 214.74 2159.27 212.518 Q2156.93 210.272 2156.93 206.522 Q2156.93 202.147 2159.85 199.925 Q2162.79 197.703 2168.6 197.703 L2174.57 197.703 L2174.57 197.286 Q2174.57 194.347 2172.63 192.749 Q2170.71 191.129 2167.21 191.129 Q2164.99 191.129 2162.88 191.661 Q2160.78 192.194 2158.83 193.259 L2158.83 189.323 Q2161.17 188.421 2163.37 187.981 Q2165.57 187.518 2167.65 187.518 Q2173.28 187.518 2176.05 190.434 Q2178.83 193.351 2178.83 199.277 Z" fill="#000000" fill-rule="nonzero" fill-opacity="1" /><circle clip-path="url(#clip890)" cx="1849.35" cy="248.629" r="23.04" fill="#3da44d" fill-rule="evenodd" fill-opacity="1" stroke="none"/>
<path clip-path="url(#clip890)" d="M1944.13 231.349 L1948.81 231.349 L1948.81 265.909 L1944.13 265.909 L1944.13 231.349 Z" fill="#000000" fill-rule="nonzero" fill-opacity="1" /><path clip-path="url(#clip890)" d="M1972.95 243.964 Q1972.24 243.548 1971.38 243.362 Q1970.55 243.154 1969.53 243.154 Q1965.92 243.154 1963.97 245.515 Q1962.05 247.853 1962.05 252.251 L1962.05 265.909 L1957.77 265.909 L1957.77 239.983 L1962.05 239.983 L1962.05 244.011 Q1963.39 241.649 1965.55 240.515 Q1967.7 239.358 1970.78 239.358 Q1971.22 239.358 1971.75 239.427 Q1972.28 239.474 1972.93 239.589 L1972.95 243.964 Z" fill="#000000" fill-rule="nonzero" fill-opacity="1" /><path clip-path="url(#clip890)" d="M1977.42 239.983 L1981.68 239.983 L1981.68 265.909 L1977.42 265.909 L1977.42 239.983 M1977.42 229.89 L1981.68 229.89 L1981.68 235.284 L1977.42 235.284 L1977.42 229.89 Z" fill="#000000" fill-rule="nonzero" fill-opacity="1" /><path clip-path="url(#clip890)" d="M2007.12 240.747 L2007.12 244.774 Q2005.31 243.849 2003.37 243.386 Q2001.43 242.923 1999.34 242.923 Q1996.17 242.923 1994.57 243.895 Q1993 244.867 1993 246.811 Q1993 248.293 1994.13 249.149 Q1995.27 249.983 1998.69 250.747 L2000.15 251.071 Q2004.69 252.043 2006.59 253.825 Q2008.51 255.585 2008.51 258.756 Q2008.51 262.367 2005.64 264.473 Q2002.79 266.58 1997.79 266.58 Q1995.71 266.58 1993.44 266.163 Q1991.19 265.77 1988.69 264.96 L1988.69 260.561 Q1991.06 261.788 1993.35 262.413 Q1995.64 263.015 1997.88 263.015 Q2000.89 263.015 2002.51 261.997 Q2004.13 260.955 2004.13 259.08 Q2004.13 257.344 2002.95 256.418 Q2001.8 255.492 1997.84 254.636 L1996.36 254.288 Q1992.4 253.455 1990.64 251.742 Q1988.88 250.006 1988.88 246.997 Q1988.88 243.339 1991.47 241.349 Q1994.06 239.358 1998.83 239.358 Q2001.19 239.358 2003.28 239.705 Q2005.36 240.052 2007.12 240.747 Z" fill="#000000" fill-rule="nonzero" fill-opacity="1" /><path clip-path="url(#clip890)" d="M2013.14 251.024 L2025.62 251.024 L2025.62 254.821 L2013.14 254.821 L2013.14 251.024 Z" fill="#000000" fill-rule="nonzero" fill-opacity="1" /><path clip-path="url(#clip890)" d="M2028.07 239.983 L2032.58 239.983 L2040.68 261.742 L2048.79 239.983 L2053.3 239.983 L2043.58 265.909 L2037.79 265.909 L2028.07 239.983 Z" fill="#000000" fill-rule="nonzero" fill-opacity="1" /><path clip-path="url(#clip890)" d="M2059.18 239.983 L2063.44 239.983 L2063.44 265.909 L2059.18 265.909 L2059.18 239.983 M2059.18 229.89 L2063.44 229.89 L2063.44 235.284 L2059.18 235.284 L2059.18 229.89 Z" fill="#000000" fill-rule="nonzero" fill-opacity="1" /><path clip-path="url(#clip890)" d="M2087.37 243.964 Q2086.66 243.548 2085.8 243.362 Q2084.97 243.154 2083.95 243.154 Q2080.34 243.154 2078.39 245.515 Q2076.47 247.853 2076.47 252.251 L2076.47 265.909 L2072.19 265.909 L2072.19 239.983 L2076.47 239.983 L2076.47 244.011 Q2077.81 241.649 2079.97 240.515 Q2082.12 239.358 2085.2 239.358 Q2085.64 239.358 2086.17 239.427 Q2086.7 239.474 2087.35 239.589 L2087.37 243.964 Z" fill="#000000" fill-rule="nonzero" fill-opacity="1" /><path clip-path="url(#clip890)" d="M2108.07 252.645 Q2108.07 248.015 2106.15 245.469 Q2104.25 242.923 2100.8 242.923 Q2097.37 242.923 2095.45 245.469 Q2093.55 248.015 2093.55 252.645 Q2093.55 257.251 2095.45 259.798 Q2097.37 262.344 2100.8 262.344 Q2104.25 262.344 2106.15 259.798 Q2108.07 257.251 2108.07 252.645 M2112.33 262.691 Q2112.33 269.311 2109.39 272.529 Q2106.45 275.77 2100.38 275.77 Q2098.14 275.77 2096.15 275.422 Q2094.16 275.098 2092.28 274.404 L2092.28 270.26 Q2094.16 271.279 2095.99 271.765 Q2097.81 272.251 2099.71 272.251 Q2103.9 272.251 2105.99 270.052 Q2108.07 267.876 2108.07 263.455 L2108.07 261.348 Q2106.75 263.64 2104.69 264.774 Q2102.63 265.909 2099.76 265.909 Q2094.99 265.909 2092.07 262.274 Q2089.16 258.64 2089.16 252.645 Q2089.16 246.626 2092.07 242.992 Q2094.99 239.358 2099.76 239.358 Q2102.63 239.358 2104.69 240.492 Q2106.75 241.626 2108.07 243.918 L2108.07 239.983 L2112.33 239.983 L2112.33 262.691 Z" fill="#000000" fill-rule="nonzero" fill-opacity="1" /><path clip-path="url(#clip890)" d="M2121.1 239.983 L2125.36 239.983 L2125.36 265.909 L2121.1 265.909 L2121.1 239.983 M2121.1 229.89 L2125.36 229.89 L2125.36 235.284 L2121.1 235.284 L2121.1 229.89 Z" fill="#000000" fill-rule="nonzero" fill-opacity="1" /><path clip-path="url(#clip890)" d="M2155.82 250.261 L2155.82 265.909 L2151.56 265.909 L2151.56 250.399 Q2151.56 246.719 2150.13 244.89 Q2148.69 243.062 2145.82 243.062 Q2142.37 243.062 2140.38 245.261 Q2138.39 247.46 2138.39 251.256 L2138.39 265.909 L2134.11 265.909 L2134.11 239.983 L2138.39 239.983 L2138.39 244.011 Q2139.92 241.673 2141.98 240.515 Q2144.06 239.358 2146.77 239.358 Q2151.24 239.358 2153.53 242.136 Q2155.82 244.89 2155.82 250.261 Z" fill="#000000" fill-rule="nonzero" fill-opacity="1" /><path clip-path="url(#clip890)" d="M2164.32 239.983 L2168.58 239.983 L2168.58 265.909 L2164.32 265.909 L2164.32 239.983 M2164.32 229.89 L2168.58 229.89 L2168.58 235.284 L2164.32 235.284 L2164.32 229.89 Z" fill="#000000" fill-rule="nonzero" fill-opacity="1" /><path clip-path="url(#clip890)" d="M2196.15 240.978 L2196.15 244.96 Q2194.34 243.964 2192.51 243.478 Q2190.71 242.969 2188.86 242.969 Q2184.71 242.969 2182.42 245.608 Q2180.13 248.224 2180.13 252.969 Q2180.13 257.714 2182.42 260.353 Q2184.71 262.969 2188.86 262.969 Q2190.71 262.969 2192.51 262.483 Q2194.34 261.973 2196.15 260.978 L2196.15 264.913 Q2194.36 265.747 2192.44 266.163 Q2190.55 266.58 2188.39 266.58 Q2182.54 266.58 2179.09 262.899 Q2175.64 259.219 2175.64 252.969 Q2175.64 246.626 2179.11 242.992 Q2182.61 239.358 2188.67 239.358 Q2190.64 239.358 2192.51 239.775 Q2194.39 240.168 2196.15 240.978 Z" fill="#000000" fill-rule="nonzero" fill-opacity="1" /><path clip-path="url(#clip890)" d="M2215.34 252.876 Q2210.17 252.876 2208.18 254.057 Q2206.19 255.237 2206.19 258.085 Q2206.19 260.353 2207.67 261.696 Q2209.18 263.015 2211.75 263.015 Q2215.29 263.015 2217.42 260.515 Q2219.57 257.992 2219.57 253.825 L2219.57 252.876 L2215.34 252.876 M2223.83 251.117 L2223.83 265.909 L2219.57 265.909 L2219.57 261.973 Q2218.11 264.335 2215.94 265.469 Q2213.76 266.58 2210.61 266.58 Q2206.63 266.58 2204.27 264.358 Q2201.93 262.112 2201.93 258.362 Q2201.93 253.987 2204.85 251.765 Q2207.79 249.543 2213.6 249.543 L2219.57 249.543 L2219.57 249.126 Q2219.57 246.187 2217.63 244.589 Q2215.71 242.969 2212.21 242.969 Q2209.99 242.969 2207.88 243.501 Q2205.78 244.034 2203.83 245.099 L2203.83 241.163 Q2206.17 240.261 2208.37 239.821 Q2210.57 239.358 2212.65 239.358 Q2218.28 239.358 2221.05 242.274 Q2223.83 245.191 2223.83 251.117 Z" fill="#000000" fill-rule="nonzero" fill-opacity="1" /></svg>
