<?xml version="1.0" encoding="utf-8"?>
<svg xmlns="http://www.w3.org/2000/svg" xmlns:xlink="http://www.w3.org/1999/xlink" width="400" height="300" viewBox="0 0 1600 1200">
<defs>
  <clipPath id="clip990">
    <rect x="0" y="0" width="1600" height="1200"/>
  </clipPath>
</defs>
<path clip-path="url(#clip990)" d="M0 1200 L1600 1200 L1600 0 L0 0  Z" fill="#ffffff" fill-rule="evenodd" fill-opacity="1"/>
<defs>
  <clipPath id="clip991">
    <rect x="320" y="0" width="1121" height="1121"/>
  </clipPath>
</defs>
<path clip-path="url(#clip990)" d="M203.061 1086.13 L1552.76 1086.13 L1552.76 131.032 L203.061 131.032  Z" fill="#ffffff" fill-rule="evenodd" fill-opacity="1"/>
<defs>
  <clipPath id="clip992">
    <rect x="203" y="131" width="1351" height="956"/>
  </clipPath>
</defs>
<polyline clip-path="url(#clip992)" style="stroke:#000000; stroke-linecap:round; stroke-linejoin:round; stroke-width:2; stroke-opacity:0.1; fill:none" points="448.9,1086.13 448.9,131.032 "/>
<polyline clip-path="url(#clip992)" style="stroke:#000000; stroke-linecap:round; stroke-linejoin:round; stroke-width:2; stroke-opacity:0.1; fill:none" points="877.908,1086.13 877.908,131.032 "/>
<polyline clip-path="url(#clip992)" style="stroke:#000000; stroke-linecap:round; stroke-linejoin:round; stroke-width:2; stroke-opacity:0.1; fill:none" points="1306.92,1086.13 1306.92,131.032 "/>
<polyline clip-path="url(#clip990)" style="stroke:#000000; stroke-linecap:round; stroke-linejoin:round; stroke-width:4; stroke-opacity:1; fill:none" points="203.061,1086.13 1552.76,1086.13 "/>
<polyline clip-path="url(#clip990)" style="stroke:#000000; stroke-linecap:round; stroke-linejoin:round; stroke-width:4; stroke-opacity:1; fill:none" points="448.9,1086.13 448.9,1067.23 "/>
<polyline clip-path="url(#clip990)" style="stroke:#000000; stroke-linecap:round; stroke-linejoin:round; stroke-width:4; stroke-opacity:1; fill:none" points="877.908,1086.13 877.908,1067.23 "/>
<polyline clip-path="url(#clip990)" style="stroke:#000000; stroke-linecap:round; stroke-linejoin:round; stroke-width:4; stroke-opacity:1; fill:none" points="1306.92,1086.13 1306.92,1067.23 "/>
<path clip-path="url(#clip990)" d="M309.051 1107.57 L313.727 1107.57 L313.727 1142.13 L309.051 1142.13 L309.051 1107.57 Z" fill="#000000" fill-rule="nonzero" fill-opacity="1" /><path clip-path="url(#clip990)" d="M337.87 1120.18 Q337.153 1119.77 336.296 1119.58 Q335.463 1119.37 334.445 1119.37 Q330.833 1119.37 328.889 1121.73 Q326.968 1124.07 326.968 1128.47 L326.968 1142.13 L322.685 1142.13 L322.685 1116.2 L326.968 1116.2 L326.968 1120.23 Q328.31 1117.87 330.463 1116.73 Q332.616 1115.58 335.695 1115.58 Q336.134 1115.58 336.667 1115.65 Q337.199 1115.69 337.847 1115.81 L337.87 1120.18 Z" fill="#000000" fill-rule="nonzero" fill-opacity="1" /><path clip-path="url(#clip990)" d="M342.338 1116.2 L346.597 1116.2 L346.597 1142.13 L342.338 1142.13 L342.338 1116.2 M342.338 1106.11 L346.597 1106.11 L346.597 1111.5 L342.338 1111.5 L342.338 1106.11 Z" fill="#000000" fill-rule="nonzero" fill-opacity="1" /><path clip-path="url(#clip990)" d="M372.037 1116.97 L372.037 1120.99 Q370.231 1120.07 368.287 1119.6 Q366.343 1119.14 364.259 1119.14 Q361.088 1119.14 359.491 1120.11 Q357.917 1121.09 357.917 1123.03 Q357.917 1124.51 359.051 1125.37 Q360.185 1126.2 363.611 1126.97 L365.069 1127.29 Q369.606 1128.26 371.505 1130.04 Q373.426 1131.8 373.426 1134.98 Q373.426 1138.59 370.555 1140.69 Q367.708 1142.8 362.708 1142.8 Q360.625 1142.8 358.356 1142.38 Q356.111 1141.99 353.611 1141.18 L353.611 1136.78 Q355.972 1138.01 358.264 1138.63 Q360.556 1139.23 362.801 1139.23 Q365.81 1139.23 367.431 1138.22 Q369.051 1137.17 369.051 1135.3 Q369.051 1133.56 367.87 1132.64 Q366.713 1131.71 362.755 1130.85 L361.273 1130.51 Q357.315 1129.67 355.556 1127.96 Q353.796 1126.23 353.796 1123.22 Q353.796 1119.56 356.389 1117.57 Q358.981 1115.58 363.75 1115.58 Q366.111 1115.58 368.194 1115.92 Q370.278 1116.27 372.037 1116.97 Z" fill="#000000" fill-rule="nonzero" fill-opacity="1" /><path clip-path="url(#clip990)" d="M378.055 1127.24 L390.532 1127.24 L390.532 1131.04 L378.055 1131.04 L378.055 1127.24 Z" fill="#000000" fill-rule="nonzero" fill-opacity="1" /><path clip-path="url(#clip990)" d="M392.986 1116.2 L397.5 1116.2 L405.602 1137.96 L413.703 1116.2 L418.217 1116.2 L408.495 1142.13 L402.708 1142.13 L392.986 1116.2 Z" fill="#000000" fill-rule="nonzero" fill-opacity="1" /><path clip-path="url(#clip990)" d="M424.097 1116.2 L428.356 1116.2 L428.356 1142.13 L424.097 1142.13 L424.097 1116.2 M424.097 1106.11 L428.356 1106.11 L428.356 1111.5 L424.097 1111.5 L424.097 1106.11 Z" fill="#000000" fill-rule="nonzero" fill-opacity="1" /><path clip-path="url(#clip990)" d="M452.291 1120.18 Q451.574 1119.77 450.717 1119.58 Q449.884 1119.37 448.865 1119.37 Q445.254 1119.37 443.31 1121.73 Q441.388 1124.07 441.388 1128.47 L441.388 1142.13 L437.106 1142.13 L437.106 1116.2 L441.388 1116.2 L441.388 1120.23 Q442.731 1117.87 444.884 1116.73 Q447.037 1115.58 450.115 1115.58 Q450.555 1115.58 451.087 1115.65 Q451.62 1115.69 452.268 1115.81 L452.291 1120.18 Z" fill="#000000" fill-rule="nonzero" fill-opacity="1" /><path clip-path="url(#clip990)" d="M472.986 1128.86 Q472.986 1124.23 471.064 1121.69 Q469.166 1119.14 465.717 1119.14 Q462.291 1119.14 460.37 1121.69 Q458.472 1124.23 458.472 1128.86 Q458.472 1133.47 460.37 1136.02 Q462.291 1138.56 465.717 1138.56 Q469.166 1138.56 471.064 1136.02 Q472.986 1133.47 472.986 1128.86 M477.245 1138.91 Q477.245 1145.53 474.305 1148.75 Q471.365 1151.99 465.3 1151.99 Q463.055 1151.99 461.064 1151.64 Q459.074 1151.32 457.199 1150.62 L457.199 1146.48 Q459.074 1147.5 460.902 1147.98 Q462.731 1148.47 464.629 1148.47 Q468.819 1148.47 470.902 1146.27 Q472.986 1144.1 472.986 1139.67 L472.986 1137.57 Q471.666 1139.86 469.606 1140.99 Q467.546 1142.13 464.675 1142.13 Q459.907 1142.13 456.99 1138.49 Q454.074 1134.86 454.074 1128.86 Q454.074 1122.85 456.99 1119.21 Q459.907 1115.58 464.675 1115.58 Q467.546 1115.58 469.606 1116.71 Q471.666 1117.85 472.986 1120.14 L472.986 1116.2 L477.245 1116.2 L477.245 1138.91 Z" fill="#000000" fill-rule="nonzero" fill-opacity="1" /><path clip-path="url(#clip990)" d="M486.018 1116.2 L490.277 1116.2 L490.277 1142.13 L486.018 1142.13 L486.018 1116.2 M486.018 1106.11 L490.277 1106.11 L490.277 1111.5 L486.018 1111.5 L486.018 1106.11 Z" fill="#000000" fill-rule="nonzero" fill-opacity="1" /><path clip-path="url(#clip990)" d="M520.74 1126.48 L520.74 1142.13 L516.481 1142.13 L516.481 1126.62 Q516.481 1122.94 515.045 1121.11 Q513.61 1119.28 510.74 1119.28 Q507.291 1119.28 505.3 1121.48 Q503.309 1123.68 503.309 1127.48 L503.309 1142.13 L499.027 1142.13 L499.027 1116.2 L503.309 1116.2 L503.309 1120.23 Q504.837 1117.89 506.897 1116.73 Q508.981 1115.58 511.689 1115.58 Q516.157 1115.58 518.448 1118.35 Q520.74 1121.11 520.74 1126.48 Z" fill="#000000" fill-rule="nonzero" fill-opacity="1" /><path clip-path="url(#clip990)" d="M529.235 1116.2 L533.494 1116.2 L533.494 1142.13 L529.235 1142.13 L529.235 1116.2 M529.235 1106.11 L533.494 1106.11 L533.494 1111.5 L529.235 1111.5 L529.235 1106.11 Z" fill="#000000" fill-rule="nonzero" fill-opacity="1" /><path clip-path="url(#clip990)" d="M561.064 1117.2 L561.064 1121.18 Q559.258 1120.18 557.429 1119.7 Q555.624 1119.19 553.772 1119.19 Q549.629 1119.19 547.337 1121.83 Q545.045 1124.44 545.045 1129.19 Q545.045 1133.93 547.337 1136.57 Q549.629 1139.19 553.772 1139.19 Q555.624 1139.19 557.429 1138.7 Q559.258 1138.19 561.064 1137.2 L561.064 1141.13 Q559.281 1141.97 557.36 1142.38 Q555.462 1142.8 553.309 1142.8 Q547.453 1142.8 544.004 1139.12 Q540.555 1135.44 540.555 1129.19 Q540.555 1122.85 544.027 1119.21 Q547.522 1115.58 553.587 1115.58 Q555.555 1115.58 557.429 1115.99 Q559.304 1116.39 561.064 1117.2 Z" fill="#000000" fill-rule="nonzero" fill-opacity="1" /><path clip-path="url(#clip990)" d="M580.253 1129.1 Q575.091 1129.1 573.101 1130.28 Q571.11 1131.46 571.11 1134.3 Q571.11 1136.57 572.591 1137.91 Q574.096 1139.23 576.666 1139.23 Q580.207 1139.23 582.337 1136.73 Q584.49 1134.21 584.49 1130.04 L584.49 1129.1 L580.253 1129.1 M588.749 1127.34 L588.749 1142.13 L584.49 1142.13 L584.49 1138.19 Q583.031 1140.55 580.855 1141.69 Q578.679 1142.8 575.531 1142.8 Q571.55 1142.8 569.189 1140.58 Q566.851 1138.33 566.851 1134.58 Q566.851 1130.21 569.767 1127.98 Q572.707 1125.76 578.517 1125.76 L584.49 1125.76 L584.49 1125.35 Q584.49 1122.41 582.545 1120.81 Q580.624 1119.19 577.128 1119.19 Q574.906 1119.19 572.8 1119.72 Q570.693 1120.25 568.749 1121.32 L568.749 1117.38 Q571.087 1116.48 573.286 1116.04 Q575.485 1115.58 577.568 1115.58 Q583.193 1115.58 585.971 1118.49 Q588.749 1121.41 588.749 1127.34 Z" fill="#000000" fill-rule="nonzero" fill-opacity="1" /><path clip-path="url(#clip990)" d="M760.56 1107.57 L765.235 1107.57 L765.235 1142.13 L760.56 1142.13 L760.56 1107.57 Z" fill="#000000" fill-rule="nonzero" fill-opacity="1" /><path clip-path="url(#clip990)" d="M789.379 1120.18 Q788.661 1119.77 787.805 1119.58 Q786.971 1119.37 785.953 1119.37 Q782.342 1119.37 780.397 1121.73 Q778.476 1124.07 778.476 1128.47 L778.476 1142.13 L774.194 1142.13 L774.194 1116.2 L778.476 1116.2 L778.476 1120.23 Q779.819 1117.87 781.971 1116.73 Q784.124 1115.58 787.203 1115.58 Q787.643 1115.58 788.175 1115.65 Q788.708 1115.69 789.356 1115.81 L789.379 1120.18 Z" fill="#000000" fill-rule="nonzero" fill-opacity="1" /><path clip-path="url(#clip990)" d="M793.846 1116.2 L798.106 1116.2 L798.106 1142.13 L793.846 1142.13 L793.846 1116.2 M793.846 1106.11 L798.106 1106.11 L798.106 1111.5 L793.846 1111.5 L793.846 1106.11 Z" fill="#000000" fill-rule="nonzero" fill-opacity="1" /><path clip-path="url(#clip990)" d="M823.545 1116.97 L823.545 1120.99 Q821.74 1120.07 819.795 1119.6 Q817.851 1119.14 815.768 1119.14 Q812.596 1119.14 810.999 1120.11 Q809.425 1121.09 809.425 1123.03 Q809.425 1124.51 810.559 1125.37 Q811.694 1126.2 815.119 1126.97 L816.578 1127.29 Q821.115 1128.26 823.013 1130.04 Q824.934 1131.8 824.934 1134.98 Q824.934 1138.59 822.064 1140.69 Q819.217 1142.8 814.217 1142.8 Q812.133 1142.8 809.865 1142.38 Q807.619 1141.99 805.119 1141.18 L805.119 1136.78 Q807.481 1138.01 809.772 1138.63 Q812.064 1139.23 814.309 1139.23 Q817.318 1139.23 818.939 1138.22 Q820.559 1137.17 820.559 1135.3 Q820.559 1133.56 819.379 1132.64 Q818.221 1131.71 814.263 1130.85 L812.781 1130.51 Q808.823 1129.67 807.064 1127.96 Q805.305 1126.23 805.305 1123.22 Q805.305 1119.56 807.897 1117.57 Q810.49 1115.58 815.258 1115.58 Q817.619 1115.58 819.703 1115.92 Q821.786 1116.27 823.545 1116.97 Z" fill="#000000" fill-rule="nonzero" fill-opacity="1" /><path clip-path="url(#clip990)" d="M829.564 1127.24 L842.041 1127.24 L842.041 1131.04 L829.564 1131.04 L829.564 1127.24 Z" fill="#000000" fill-rule="nonzero" fill-opacity="1" /><path clip-path="url(#clip990)" d="M865.351 1116.97 L865.351 1120.99 Q863.545 1120.07 861.601 1119.6 Q859.656 1119.14 857.573 1119.14 Q854.402 1119.14 852.804 1120.11 Q851.23 1121.09 851.23 1123.03 Q851.23 1124.51 852.365 1125.37 Q853.499 1126.2 856.925 1126.97 L858.383 1127.29 Q862.92 1128.26 864.818 1130.04 Q866.74 1131.8 866.74 1134.98 Q866.74 1138.59 863.869 1140.69 Q861.022 1142.8 856.022 1142.8 Q853.939 1142.8 851.67 1142.38 Q849.425 1141.99 846.925 1141.18 L846.925 1136.78 Q849.286 1138.01 851.578 1138.63 Q853.869 1139.23 856.115 1139.23 Q859.124 1139.23 860.744 1138.22 Q862.365 1137.17 862.365 1135.3 Q862.365 1133.56 861.184 1132.64 Q860.027 1131.71 856.068 1130.85 L854.587 1130.51 Q850.628 1129.67 848.869 1127.96 Q847.11 1126.23 847.11 1123.22 Q847.11 1119.56 849.703 1117.57 Q852.295 1115.58 857.064 1115.58 Q859.425 1115.58 861.508 1115.92 Q863.591 1116.27 865.351 1116.97 Z" fill="#000000" fill-rule="nonzero" fill-opacity="1" /><path clip-path="url(#clip990)" d="M895.698 1128.1 L895.698 1130.18 L876.114 1130.18 Q876.392 1134.58 878.753 1136.9 Q881.138 1139.19 885.374 1139.19 Q887.827 1139.19 890.119 1138.59 Q892.434 1137.98 894.702 1136.78 L894.702 1140.81 Q892.411 1141.78 890.003 1142.29 Q887.596 1142.8 885.119 1142.8 Q878.915 1142.8 875.281 1139.19 Q871.67 1135.58 871.67 1129.42 Q871.67 1123.05 875.096 1119.33 Q878.545 1115.58 884.378 1115.58 Q889.61 1115.58 892.642 1118.96 Q895.698 1122.31 895.698 1128.1 M891.438 1126.85 Q891.392 1123.35 889.471 1121.27 Q887.573 1119.19 884.425 1119.19 Q880.86 1119.19 878.707 1121.2 Q876.577 1123.22 876.253 1126.87 L891.438 1126.85 Z" fill="#000000" fill-rule="nonzero" fill-opacity="1" /><path clip-path="url(#clip990)" d="M906.901 1108.84 L906.901 1116.2 L915.674 1116.2 L915.674 1119.51 L906.901 1119.51 L906.901 1133.59 Q906.901 1136.76 907.758 1137.66 Q908.637 1138.56 911.299 1138.56 L915.674 1138.56 L915.674 1142.13 L911.299 1142.13 Q906.369 1142.13 904.494 1140.3 Q902.619 1138.45 902.619 1133.59 L902.619 1119.51 L899.494 1119.51 L899.494 1116.2 L902.619 1116.2 L902.619 1108.84 L906.901 1108.84 Z" fill="#000000" fill-rule="nonzero" fill-opacity="1" /><path clip-path="url(#clip990)" d="M931.323 1119.19 Q927.897 1119.19 925.906 1121.87 Q923.915 1124.54 923.915 1129.19 Q923.915 1133.84 925.883 1136.53 Q927.873 1139.19 931.323 1139.19 Q934.725 1139.19 936.716 1136.5 Q938.707 1133.82 938.707 1129.19 Q938.707 1124.58 936.716 1121.9 Q934.725 1119.19 931.323 1119.19 M931.323 1115.58 Q936.878 1115.58 940.049 1119.19 Q943.221 1122.8 943.221 1129.19 Q943.221 1135.55 940.049 1139.19 Q936.878 1142.8 931.323 1142.8 Q925.744 1142.8 922.573 1139.19 Q919.424 1135.55 919.424 1129.19 Q919.424 1122.8 922.573 1119.19 Q925.744 1115.58 931.323 1115.58 Z" fill="#000000" fill-rule="nonzero" fill-opacity="1" /><path clip-path="url(#clip990)" d="M966.808 1116.97 L966.808 1120.99 Q965.003 1120.07 963.058 1119.6 Q961.114 1119.14 959.031 1119.14 Q955.859 1119.14 954.262 1120.11 Q952.688 1121.09 952.688 1123.03 Q952.688 1124.51 953.822 1125.37 Q954.957 1126.2 958.383 1126.97 L959.841 1127.29 Q964.378 1128.26 966.276 1130.04 Q968.197 1131.8 968.197 1134.98 Q968.197 1138.59 965.327 1140.69 Q962.48 1142.8 957.48 1142.8 Q955.396 1142.8 953.128 1142.38 Q950.883 1141.99 948.383 1141.18 L948.383 1136.78 Q950.744 1138.01 953.035 1138.63 Q955.327 1139.23 957.572 1139.23 Q960.582 1139.23 962.202 1138.22 Q963.822 1137.17 963.822 1135.3 Q963.822 1133.56 962.642 1132.64 Q961.484 1131.71 957.526 1130.85 L956.045 1130.51 Q952.086 1129.67 950.327 1127.96 Q948.568 1126.23 948.568 1123.22 Q948.568 1119.56 951.16 1117.57 Q953.753 1115.58 958.521 1115.58 Q960.883 1115.58 962.966 1115.92 Q965.049 1116.27 966.808 1116.97 Z" fill="#000000" fill-rule="nonzero" fill-opacity="1" /><path clip-path="url(#clip990)" d="M986.762 1129.1 Q981.6 1129.1 979.609 1130.28 Q977.619 1131.46 977.619 1134.3 Q977.619 1136.57 979.1 1137.91 Q980.605 1139.23 983.174 1139.23 Q986.716 1139.23 988.845 1136.73 Q990.998 1134.21 990.998 1130.04 L990.998 1129.1 L986.762 1129.1 M995.257 1127.34 L995.257 1142.13 L990.998 1142.13 L990.998 1138.19 Q989.54 1140.55 987.364 1141.69 Q985.188 1142.8 982.04 1142.8 Q978.058 1142.8 975.697 1140.58 Q973.359 1138.33 973.359 1134.58 Q973.359 1130.21 976.276 1127.98 Q979.216 1125.76 985.026 1125.76 L990.998 1125.76 L990.998 1125.35 Q990.998 1122.41 989.054 1120.81 Q987.132 1119.19 983.637 1119.19 Q981.415 1119.19 979.308 1119.72 Q977.202 1120.25 975.257 1121.32 L975.257 1117.38 Q977.595 1116.48 979.794 1116.04 Q981.994 1115.58 984.077 1115.58 Q989.702 1115.58 992.48 1118.49 Q995.257 1121.41 995.257 1127.34 Z" fill="#000000" fill-rule="nonzero" fill-opacity="1" /><path clip-path="url(#clip990)" d="M1150 1107.57 L1154.67 1107.57 L1154.67 1142.13 L1150 1142.13 L1150 1107.57 Z" fill="#000000" fill-rule="nonzero" fill-opacity="1" /><path clip-path="url(#clip990)" d="M1178.82 1120.18 Q1178.1 1119.77 1177.24 1119.58 Q1176.41 1119.37 1175.39 1119.37 Q1171.78 1119.37 1169.83 1121.73 Q1167.91 1124.07 1167.91 1128.47 L1167.91 1142.13 L1163.63 1142.13 L1163.63 1116.2 L1167.91 1116.2 L1167.91 1120.23 Q1169.26 1117.87 1171.41 1116.73 Q1173.56 1115.58 1176.64 1115.58 Q1177.08 1115.58 1177.61 1115.65 Q1178.14 1115.69 1178.79 1115.81 L1178.82 1120.18 Z" fill="#000000" fill-rule="nonzero" fill-opacity="1" /><path clip-path="url(#clip990)" d="M1183.28 1116.2 L1187.54 1116.2 L1187.54 1142.13 L1183.28 1142.13 L1183.28 1116.2 M1183.28 1106.11 L1187.54 1106.11 L1187.54 1111.5 L1183.28 1111.5 L1183.28 1106.11 Z" fill="#000000" fill-rule="nonzero" fill-opacity="1" /><path clip-path="url(#clip990)" d="M1212.98 1116.97 L1212.98 1120.99 Q1211.18 1120.07 1209.23 1119.6 Q1207.29 1119.14 1205.2 1119.14 Q1202.03 1119.14 1200.44 1120.11 Q1198.86 1121.09 1198.86 1123.03 Q1198.86 1124.51 1200 1125.37 Q1201.13 1126.2 1204.56 1126.97 L1206.01 1127.29 Q1210.55 1128.26 1212.45 1130.04 Q1214.37 1131.8 1214.37 1134.98 Q1214.37 1138.59 1211.5 1140.69 Q1208.65 1142.8 1203.65 1142.8 Q1201.57 1142.8 1199.3 1142.38 Q1197.06 1141.99 1194.56 1141.18 L1194.56 1136.78 Q1196.92 1138.01 1199.21 1138.63 Q1201.5 1139.23 1203.75 1139.23 Q1206.76 1139.23 1208.38 1138.22 Q1210 1137.17 1210 1135.3 Q1210 1133.56 1208.82 1132.64 Q1207.66 1131.71 1203.7 1130.85 L1202.22 1130.51 Q1198.26 1129.67 1196.5 1127.96 Q1194.74 1126.23 1194.74 1123.22 Q1194.74 1119.56 1197.33 1117.57 Q1199.93 1115.58 1204.7 1115.58 Q1207.06 1115.58 1209.14 1115.92 Q1211.22 1116.27 1212.98 1116.97 Z" fill="#000000" fill-rule="nonzero" fill-opacity="1" /><path clip-path="url(#clip990)" d="M1219 1127.24 L1231.48 1127.24 L1231.48 1131.04 L1219 1131.04 L1219 1127.24 Z" fill="#000000" fill-rule="nonzero" fill-opacity="1" /><path clip-path="url(#clip990)" d="M1233.93 1116.2 L1238.45 1116.2 L1246.55 1137.96 L1254.65 1116.2 L1259.16 1116.2 L1249.44 1142.13 L1243.65 1142.13 L1233.93 1116.2 Z" fill="#000000" fill-rule="nonzero" fill-opacity="1" /><path clip-path="url(#clip990)" d="M1287.22 1128.1 L1287.22 1130.18 L1267.63 1130.18 Q1267.91 1134.58 1270.27 1136.9 Q1272.66 1139.19 1276.89 1139.19 Q1279.35 1139.19 1281.64 1138.59 Q1283.95 1137.98 1286.22 1136.78 L1286.22 1140.81 Q1283.93 1141.78 1281.52 1142.29 Q1279.12 1142.8 1276.64 1142.8 Q1270.44 1142.8 1266.8 1139.19 Q1263.19 1135.58 1263.19 1129.42 Q1263.19 1123.05 1266.62 1119.33 Q1270.07 1115.58 1275.9 1115.58 Q1281.13 1115.58 1284.16 1118.96 Q1287.22 1122.31 1287.22 1128.1 M1282.96 1126.85 Q1282.91 1123.35 1280.99 1121.27 Q1279.09 1119.19 1275.94 1119.19 Q1272.38 1119.19 1270.23 1121.2 Q1268.1 1123.22 1267.77 1126.87 L1282.96 1126.85 Z" fill="#000000" fill-rule="nonzero" fill-opacity="1" /><path clip-path="url(#clip990)" d="M1309.23 1120.18 Q1308.51 1119.77 1307.66 1119.58 Q1306.82 1119.37 1305.81 1119.37 Q1302.19 1119.37 1300.25 1121.73 Q1298.33 1124.07 1298.33 1128.47 L1298.33 1142.13 L1294.05 1142.13 L1294.05 1116.2 L1298.33 1116.2 L1298.33 1120.23 Q1299.67 1117.87 1301.82 1116.73 Q1303.98 1115.58 1307.06 1115.58 Q1307.5 1115.58 1308.03 1115.65 Q1308.56 1115.69 1309.21 1115.81 L1309.23 1120.18 Z" fill="#000000" fill-rule="nonzero" fill-opacity="1" /><path clip-path="url(#clip990)" d="M1330.23 1116.97 L1330.23 1120.99 Q1328.42 1120.07 1326.48 1119.6 Q1324.53 1119.14 1322.45 1119.14 Q1319.28 1119.14 1317.68 1120.11 Q1316.11 1121.09 1316.11 1123.03 Q1316.11 1124.51 1317.24 1125.37 Q1318.38 1126.2 1321.8 1126.97 L1323.26 1127.29 Q1327.8 1128.26 1329.69 1130.04 Q1331.62 1131.8 1331.62 1134.98 Q1331.62 1138.59 1328.75 1140.69 Q1325.9 1142.8 1320.9 1142.8 Q1318.81 1142.8 1316.55 1142.38 Q1314.3 1141.99 1311.8 1141.18 L1311.8 1136.78 Q1314.16 1138.01 1316.45 1138.63 Q1318.75 1139.23 1320.99 1139.23 Q1324 1139.23 1325.62 1138.22 Q1327.24 1137.17 1327.24 1135.3 Q1327.24 1133.56 1326.06 1132.64 Q1324.9 1131.71 1320.94 1130.85 L1319.46 1130.51 Q1315.5 1129.67 1313.75 1127.96 Q1311.99 1126.23 1311.99 1123.22 Q1311.99 1119.56 1314.58 1117.57 Q1317.17 1115.58 1321.94 1115.58 Q1324.3 1115.58 1326.38 1115.92 Q1328.47 1116.27 1330.23 1116.97 Z" fill="#000000" fill-rule="nonzero" fill-opacity="1" /><path clip-path="url(#clip990)" d="M1338.4 1116.2 L1342.66 1116.2 L1342.66 1142.13 L1338.4 1142.13 L1338.4 1116.2 M1338.4 1106.11 L1342.66 1106.11 L1342.66 1111.5 L1338.4 1111.5 L1338.4 1106.11 Z" fill="#000000" fill-rule="nonzero" fill-opacity="1" /><path clip-path="url(#clip990)" d="M1370.23 1117.2 L1370.23 1121.18 Q1368.42 1120.18 1366.59 1119.7 Q1364.79 1119.19 1362.94 1119.19 Q1358.79 1119.19 1356.5 1121.83 Q1354.21 1124.44 1354.21 1129.19 Q1354.21 1133.93 1356.5 1136.57 Q1358.79 1139.19 1362.94 1139.19 Q1364.79 1139.19 1366.59 1138.7 Q1368.42 1138.19 1370.23 1137.2 L1370.23 1141.13 Q1368.44 1141.97 1366.52 1142.38 Q1364.62 1142.8 1362.47 1142.8 Q1356.62 1142.8 1353.17 1139.12 Q1349.72 1135.44 1349.72 1129.19 Q1349.72 1122.85 1353.19 1119.21 Q1356.69 1115.58 1362.75 1115.58 Q1364.72 1115.58 1366.59 1115.99 Q1368.47 1116.39 1370.23 1117.2 Z" fill="#000000" fill-rule="nonzero" fill-opacity="1" /><path clip-path="url(#clip990)" d="M1387.68 1119.19 Q1384.25 1119.19 1382.26 1121.87 Q1380.27 1124.54 1380.27 1129.19 Q1380.27 1133.84 1382.24 1136.53 Q1384.23 1139.19 1387.68 1139.19 Q1391.08 1139.19 1393.07 1136.5 Q1395.06 1133.82 1395.06 1129.19 Q1395.06 1124.58 1393.07 1121.9 Q1391.08 1119.19 1387.68 1119.19 M1387.68 1115.58 Q1393.24 1115.58 1396.41 1119.19 Q1399.58 1122.8 1399.58 1129.19 Q1399.58 1135.55 1396.41 1139.19 Q1393.24 1142.8 1387.68 1142.8 Q1382.1 1142.8 1378.93 1139.19 Q1375.78 1135.55 1375.78 1129.19 Q1375.78 1122.8 1378.93 1119.19 Q1382.1 1115.58 1387.68 1115.58 Z" fill="#000000" fill-rule="nonzero" fill-opacity="1" /><path clip-path="url(#clip990)" d="M1406.64 1106.11 L1410.9 1106.11 L1410.9 1142.13 L1406.64 1142.13 L1406.64 1106.11 Z" fill="#000000" fill-rule="nonzero" fill-opacity="1" /><path clip-path="url(#clip990)" d="M1429.86 1119.19 Q1426.43 1119.19 1424.44 1121.87 Q1422.45 1124.54 1422.45 1129.19 Q1422.45 1133.84 1424.42 1136.53 Q1426.41 1139.19 1429.86 1139.19 Q1433.26 1139.19 1435.25 1136.5 Q1437.24 1133.82 1437.24 1129.19 Q1437.24 1124.58 1435.25 1121.9 Q1433.26 1119.19 1429.86 1119.19 M1429.86 1115.58 Q1435.41 1115.58 1438.58 1119.19 Q1441.75 1122.8 1441.75 1129.19 Q1441.75 1135.55 1438.58 1139.19 Q1435.41 1142.8 1429.86 1142.8 Q1424.28 1142.8 1421.11 1139.19 Q1417.96 1135.55 1417.96 1129.19 Q1417.96 1122.8 1421.11 1119.19 Q1424.28 1115.58 1429.86 1115.58 Z" fill="#000000" fill-rule="nonzero" fill-opacity="1" /><path clip-path="url(#clip990)" d="M1463.84 1120.18 Q1463.12 1119.77 1462.26 1119.58 Q1461.43 1119.37 1460.41 1119.37 Q1456.8 1119.37 1454.86 1121.73 Q1452.93 1124.07 1452.93 1128.47 L1452.93 1142.13 L1448.65 1142.13 L1448.65 1116.2 L1452.93 1116.2 L1452.93 1120.23 Q1454.28 1117.87 1456.43 1116.73 Q1458.58 1115.58 1461.66 1115.58 Q1462.1 1115.58 1462.63 1115.65 Q1463.17 1115.69 1463.81 1115.81 L1463.84 1120.18 Z" fill="#000000" fill-rule="nonzero" fill-opacity="1" /><polyline clip-path="url(#clip992)" style="stroke:#000000; stroke-linecap:round; stroke-linejoin:round; stroke-width:2; stroke-opacity:0.1; fill:none" points="203.061,1059.1 1552.76,1059.1 "/>
<polyline clip-path="url(#clip992)" style="stroke:#000000; stroke-linecap:round; stroke-linejoin:round; stroke-width:2; stroke-opacity:0.1; fill:none" points="203.061,878.89 1552.76,878.89 "/>
<polyline clip-path="url(#clip992)" style="stroke:#000000; stroke-linecap:round; stroke-linejoin:round; stroke-width:2; stroke-opacity:0.1; fill:none" points="203.061,698.683 1552.76,698.683 "/>
<polyline clip-path="url(#clip992)" style="stroke:#000000; stroke-linecap:round; stroke-linejoin:round; stroke-width:2; stroke-opacity:0.1; fill:none" points="203.061,518.477 1552.76,518.477 "/>
<polyline clip-path="url(#clip992)" style="stroke:#000000; stroke-linecap:round; stroke-linejoin:round; stroke-width:2; stroke-opacity:0.1; fill:none" points="203.061,338.27 1552.76,338.27 "/>
<polyline clip-path="url(#clip992)" style="stroke:#000000; stroke-linecap:round; stroke-linejoin:round; stroke-width:2; stroke-opacity:0.1; fill:none" points="203.061,158.063 1552.76,158.063 "/>
<polyline clip-path="url(#clip990)" style="stroke:#000000; stroke-linecap:round; stroke-linejoin:round; stroke-width:4; stroke-opacity:1; fill:none" points="203.061,1086.13 203.061,131.032 "/>
<polyline clip-path="url(#clip990)" style="stroke:#000000; stroke-linecap:round; stroke-linejoin:round; stroke-width:4; stroke-opacity:1; fill:none" points="203.061,1059.1 221.959,1059.1 "/>
<polyline clip-path="url(#clip990)" style="stroke:#000000; stroke-linecap:round; stroke-linejoin:round; stroke-width:4; stroke-opacity:1; fill:none" points="203.061,878.89 221.959,878.89 "/>
<polyline clip-path="url(#clip990)" style="stroke:#000000; stroke-linecap:round; stroke-linejoin:round; stroke-width:4; stroke-opacity:1; fill:none" points="203.061,698.683 221.959,698.683 "/>
<polyline clip-path="url(#clip990)" style="stroke:#000000; stroke-linecap:round; stroke-linejoin:round; stroke-width:4; stroke-opacity:1; fill:none" points="203.061,518.477 221.959,518.477 "/>
<polyline clip-path="url(#clip990)" style="stroke:#000000; stroke-linecap:round; stroke-linejoin:round; stroke-width:4; stroke-opacity:1; fill:none" points="203.061,338.27 221.959,338.27 "/>
<polyline clip-path="url(#clip990)" style="stroke:#000000; stroke-linecap:round; stroke-linejoin:round; stroke-width:4; stroke-opacity:1; fill:none" points="203.061,158.063 221.959,158.063 "/>
<path clip-path="url(#clip990)" d="M167.117 1044.9 Q163.506 1044.9 161.677 1048.46 Q159.871 1052 159.871 1059.13 Q159.871 1066.24 161.677 1069.8 Q163.506 1073.34 167.117 1073.34 Q170.751 1073.34 172.556 1069.8 Q174.385 1066.24 174.385 1059.13 Q174.385 1052 172.556 1048.46 Q170.751 1044.9 167.117 1044.9 M167.117 1041.19 Q172.927 1041.19 175.982 1045.8 Q179.061 1050.38 179.061 1059.13 Q179.061 1067.86 175.982 1072.46 Q172.927 1077.05 167.117 1077.05 Q161.306 1077.05 158.228 1072.46 Q155.172 1067.86 155.172 1059.13 Q155.172 1050.38 158.228 1045.8 Q161.306 1041.19 167.117 1041.19 Z" fill="#000000" fill-rule="nonzero" fill-opacity="1" /><path clip-path="url(#clip990)" d="M127.765 892.235 L135.404 892.235 L135.404 865.869 L127.094 867.536 L127.094 863.277 L135.358 861.61 L140.033 861.61 L140.033 892.235 L147.672 892.235 L147.672 896.17 L127.765 896.17 L127.765 892.235 Z" fill="#000000" fill-rule="nonzero" fill-opacity="1" /><path clip-path="url(#clip990)" d="M167.117 864.689 Q163.506 864.689 161.677 868.254 Q159.871 871.795 159.871 878.925 Q159.871 886.031 161.677 889.596 Q163.506 893.138 167.117 893.138 Q170.751 893.138 172.556 889.596 Q174.385 886.031 174.385 878.925 Q174.385 871.795 172.556 868.254 Q170.751 864.689 167.117 864.689 M167.117 860.985 Q172.927 860.985 175.982 865.592 Q179.061 870.175 179.061 878.925 Q179.061 887.652 175.982 892.258 Q172.927 896.841 167.117 896.841 Q161.306 896.841 158.228 892.258 Q155.172 887.652 155.172 878.925 Q155.172 870.175 158.228 865.592 Q161.306 860.985 167.117 860.985 Z" fill="#000000" fill-rule="nonzero" fill-opacity="1" /><path clip-path="url(#clip990)" d="M130.983 712.028 L147.302 712.028 L147.302 715.963 L125.358 715.963 L125.358 712.028 Q128.02 709.274 132.603 704.644 Q137.209 699.991 138.39 698.649 Q140.635 696.126 141.515 694.389 Q142.418 692.63 142.418 690.94 Q142.418 688.186 140.473 686.45 Q138.552 684.714 135.45 684.714 Q133.251 684.714 130.797 685.477 Q128.367 686.241 125.589 687.792 L125.589 683.07 Q128.413 681.936 130.867 681.357 Q133.32 680.778 135.358 680.778 Q140.728 680.778 143.922 683.464 Q147.117 686.149 147.117 690.639 Q147.117 692.769 146.307 694.69 Q145.519 696.588 143.413 699.181 Q142.834 699.852 139.732 703.07 Q136.631 706.264 130.983 712.028 Z" fill="#000000" fill-rule="nonzero" fill-opacity="1" /><path clip-path="url(#clip990)" d="M167.117 684.482 Q163.506 684.482 161.677 688.047 Q159.871 691.589 159.871 698.718 Q159.871 705.825 161.677 709.389 Q163.506 712.931 167.117 712.931 Q170.751 712.931 172.556 709.389 Q174.385 705.825 174.385 698.718 Q174.385 691.589 172.556 688.047 Q170.751 684.482 167.117 684.482 M167.117 680.778 Q172.927 680.778 175.982 685.385 Q179.061 689.968 179.061 698.718 Q179.061 707.445 175.982 712.051 Q172.927 716.635 167.117 716.635 Q161.306 716.635 158.228 712.051 Q155.172 707.445 155.172 698.718 Q155.172 689.968 158.228 685.385 Q161.306 680.778 167.117 680.778 Z" fill="#000000" fill-rule="nonzero" fill-opacity="1" /><path clip-path="url(#clip990)" d="M141.121 517.122 Q144.478 517.84 146.353 520.109 Q148.251 522.377 148.251 525.71 Q148.251 530.826 144.732 533.627 Q141.214 536.428 134.733 536.428 Q132.557 536.428 130.242 535.988 Q127.95 535.571 125.496 534.715 L125.496 530.201 Q127.441 531.335 129.756 531.914 Q132.07 532.493 134.594 532.493 Q138.992 532.493 141.283 530.757 Q143.598 529.021 143.598 525.71 Q143.598 522.655 141.445 520.942 Q139.316 519.206 135.496 519.206 L131.469 519.206 L131.469 515.363 L135.682 515.363 Q139.131 515.363 140.959 513.997 Q142.788 512.609 142.788 510.016 Q142.788 507.354 140.89 505.942 Q139.015 504.507 135.496 504.507 Q133.575 504.507 131.376 504.923 Q129.177 505.34 126.538 506.22 L126.538 502.053 Q129.2 501.312 131.515 500.942 Q133.853 500.572 135.913 500.572 Q141.237 500.572 144.339 503.002 Q147.441 505.41 147.441 509.53 Q147.441 512.4 145.797 514.391 Q144.154 516.359 141.121 517.122 Z" fill="#000000" fill-rule="nonzero" fill-opacity="1" /><path clip-path="url(#clip990)" d="M167.117 504.275 Q163.506 504.275 161.677 507.84 Q159.871 511.382 159.871 518.511 Q159.871 525.618 161.677 529.183 Q163.506 532.724 167.117 532.724 Q170.751 532.724 172.556 529.183 Q174.385 525.618 174.385 518.511 Q174.385 511.382 172.556 507.84 Q170.751 504.275 167.117 504.275 M167.117 500.572 Q172.927 500.572 175.982 505.178 Q179.061 509.761 179.061 518.511 Q179.061 527.238 175.982 531.845 Q172.927 536.428 167.117 536.428 Q161.306 536.428 158.228 531.845 Q155.172 527.238 155.172 518.511 Q155.172 509.761 158.228 505.178 Q161.306 500.572 167.117 500.572 Z" fill="#000000" fill-rule="nonzero" fill-opacity="1" /><path clip-path="url(#clip990)" d="M139.802 325.064 L127.996 343.513 L139.802 343.513 L139.802 325.064 M138.575 320.99 L144.455 320.99 L144.455 343.513 L149.385 343.513 L149.385 347.402 L144.455 347.402 L144.455 355.55 L139.802 355.55 L139.802 347.402 L124.2 347.402 L124.2 342.888 L138.575 320.99 Z" fill="#000000" fill-rule="nonzero" fill-opacity="1" /><path clip-path="url(#clip990)" d="M167.117 324.069 Q163.506 324.069 161.677 327.633 Q159.871 331.175 159.871 338.305 Q159.871 345.411 161.677 348.976 Q163.506 352.517 167.117 352.517 Q170.751 352.517 172.556 348.976 Q174.385 345.411 174.385 338.305 Q174.385 331.175 172.556 327.633 Q170.751 324.069 167.117 324.069 M167.117 320.365 Q172.927 320.365 175.982 324.971 Q179.061 329.555 179.061 338.305 Q179.061 347.031 175.982 351.638 Q172.927 356.221 167.117 356.221 Q161.306 356.221 158.228 351.638 Q155.172 347.031 155.172 338.305 Q155.172 329.555 158.228 324.971 Q161.306 320.365 167.117 320.365 Z" fill="#000000" fill-rule="nonzero" fill-opacity="1" /><path clip-path="url(#clip990)" d="M127.001 140.783 L145.357 140.783 L145.357 144.718 L131.283 144.718 L131.283 153.19 Q132.302 152.843 133.32 152.681 Q134.339 152.496 135.358 152.496 Q141.145 152.496 144.524 155.667 Q147.904 158.839 147.904 164.255 Q147.904 169.834 144.432 172.936 Q140.959 176.014 134.64 176.014 Q132.464 176.014 130.195 175.644 Q127.95 175.274 125.543 174.533 L125.543 169.834 Q127.626 170.968 129.848 171.524 Q132.07 172.079 134.547 172.079 Q138.552 172.079 140.89 169.973 Q143.228 167.866 143.228 164.255 Q143.228 160.644 140.89 158.538 Q138.552 156.431 134.547 156.431 Q132.672 156.431 130.797 156.848 Q128.946 157.265 127.001 158.144 L127.001 140.783 Z" fill="#000000" fill-rule="nonzero" fill-opacity="1" /><path clip-path="url(#clip990)" d="M167.117 143.862 Q163.506 143.862 161.677 147.427 Q159.871 150.968 159.871 158.098 Q159.871 165.204 161.677 168.769 Q163.506 172.311 167.117 172.311 Q170.751 172.311 172.556 168.769 Q174.385 165.204 174.385 158.098 Q174.385 150.968 172.556 147.427 Q170.751 143.862 167.117 143.862 M167.117 140.158 Q172.927 140.158 175.982 144.765 Q179.061 149.348 179.061 158.098 Q179.061 166.825 175.982 171.431 Q172.927 176.014 167.117 176.014 Q161.306 176.014 158.228 171.431 Q155.172 166.825 155.172 158.098 Q155.172 149.348 158.228 144.765 Q161.306 140.158 167.117 140.158 Z" fill="#000000" fill-rule="nonzero" fill-opacity="1" /><path clip-path="url(#clip990)" d="M42.0844 734.255 L48.8639 734.255 Q45.8402 737.501 44.3443 741.194 Q42.8483 744.854 42.8483 748.992 Q42.8483 757.14 47.8454 761.468 Q52.8107 765.797 62.2319 765.797 Q71.6213 765.797 76.6184 761.468 Q81.5836 757.14 81.5836 748.992 Q81.5836 744.854 80.0877 741.194 Q78.5918 737.501 75.5681 734.255 L82.2839 734.255 Q84.5755 737.629 85.7214 741.416 Q86.8672 745.172 86.8672 749.374 Q86.8672 760.163 80.2787 766.37 Q73.6583 772.577 62.2319 772.577 Q50.7736 772.577 44.1851 766.37 Q37.5648 760.163 37.5648 749.374 Q37.5648 745.108 38.7106 741.353 Q39.8246 737.565 42.0844 734.255 Z" fill="#000000" fill-rule="nonzero" fill-opacity="1" /><path clip-path="url(#clip990)" d="M54.4021 710.766 Q54.4021 715.476 58.0942 718.213 Q61.7545 720.951 68.152 720.951 Q74.5495 720.951 78.2417 718.245 Q81.9019 715.508 81.9019 710.766 Q81.9019 706.087 78.2098 703.349 Q74.5177 700.612 68.152 700.612 Q61.8181 700.612 58.126 703.349 Q54.4021 706.087 54.4021 710.766 M49.4368 710.766 Q49.4368 703.127 54.4021 698.766 Q59.3673 694.406 68.152 694.406 Q76.9049 694.406 81.9019 698.766 Q86.8672 703.127 86.8672 710.766 Q86.8672 718.436 81.9019 722.797 Q76.9049 727.125 68.152 727.125 Q59.3673 727.125 54.4021 722.797 Q49.4368 718.436 49.4368 710.766 Z" fill="#000000" fill-rule="nonzero" fill-opacity="1" /><path clip-path="url(#clip990)" d="M64.4281 655.066 L85.9442 655.066 L85.9442 660.922 L64.619 660.922 Q59.5583 660.922 57.0438 662.895 Q54.5294 664.869 54.5294 668.815 Q54.5294 673.558 57.5531 676.295 Q60.5768 679.032 65.7967 679.032 L85.9442 679.032 L85.9442 684.921 L50.2962 684.921 L50.2962 679.032 L55.8344 679.032 Q52.6197 676.932 51.0283 674.099 Q49.4368 671.234 49.4368 667.511 Q49.4368 661.368 53.2563 658.217 Q57.0438 655.066 64.4281 655.066 Z" fill="#000000" fill-rule="nonzero" fill-opacity="1" /><path clip-path="url(#clip990)" d="M40.1747 637.592 L50.2962 637.592 L50.2962 625.529 L54.8477 625.529 L54.8477 637.592 L74.1994 637.592 Q78.5599 637.592 79.8013 636.414 Q81.0426 635.205 81.0426 631.544 L81.0426 625.529 L85.9442 625.529 L85.9442 631.544 Q85.9442 638.324 83.4297 640.902 Q80.8834 643.48 74.1994 643.48 L54.8477 643.48 L54.8477 647.777 L50.2962 647.777 L50.2962 643.48 L40.1747 643.48 L40.1747 637.592 Z" fill="#000000" fill-rule="nonzero" fill-opacity="1" /><path clip-path="url(#clip990)" d="M68.0247 601.625 Q68.0247 608.723 69.6479 611.46 Q71.2712 614.198 75.1861 614.198 Q78.3053 614.198 80.1514 612.161 Q81.9656 610.092 81.9656 606.559 Q81.9656 601.689 78.5281 598.761 Q75.0588 595.801 69.3297 595.801 L68.0247 595.801 L68.0247 601.625 M65.6057 589.944 L85.9442 589.944 L85.9442 595.801 L80.5333 595.801 Q83.7798 597.806 85.3394 600.798 Q86.8672 603.79 86.8672 608.118 Q86.8672 613.593 83.8116 616.84 Q80.7243 620.054 75.5681 620.054 Q69.5525 620.054 66.4969 616.044 Q63.4414 612.002 63.4414 604.013 L63.4414 595.801 L62.8685 595.801 Q58.8262 595.801 56.6301 598.474 Q54.4021 601.116 54.4021 605.922 Q54.4021 608.978 55.1341 611.874 Q55.8662 614.771 57.3303 617.444 L51.9195 617.444 Q50.6781 614.23 50.0734 611.206 Q49.4368 608.182 49.4368 605.318 Q49.4368 597.583 53.4472 593.764 Q57.4576 589.944 65.6057 589.944 Z" fill="#000000" fill-rule="nonzero" fill-opacity="1" /><path clip-path="url(#clip990)" d="M67.7064 554.424 Q61.3407 554.424 57.8396 557.066 Q54.3384 559.675 54.3384 564.418 Q54.3384 569.129 57.8396 571.77 Q61.3407 574.38 67.7064 574.38 Q74.0403 574.38 77.5414 571.77 Q81.0426 569.129 81.0426 564.418 Q81.0426 559.675 77.5414 557.066 Q74.0403 554.424 67.7064 554.424 M81.52 548.567 Q90.623 548.567 95.0471 552.61 Q99.5031 556.652 99.5031 564.991 Q99.5031 568.078 99.0257 570.815 Q98.5801 573.553 97.6252 576.131 L91.9279 576.131 Q93.3284 573.553 93.9968 571.038 Q94.6652 568.524 94.6652 565.914 Q94.6652 560.153 91.6415 557.288 Q88.6496 554.424 82.5703 554.424 L79.6739 554.424 Q82.825 556.238 84.3846 559.071 Q85.9442 561.903 85.9442 565.85 Q85.9442 572.407 80.9471 576.417 Q75.95 580.428 67.7064 580.428 Q59.431 580.428 54.4339 576.417 Q49.4368 572.407 49.4368 565.85 Q49.4368 561.903 50.9964 559.071 Q52.556 556.238 55.7071 554.424 L50.2962 554.424 L50.2962 548.567 L81.52 548.567 Z" fill="#000000" fill-rule="nonzero" fill-opacity="1" /><path clip-path="url(#clip990)" d="M66.6561 506.013 L69.5206 506.013 L69.5206 532.939 Q75.5681 532.558 78.7509 529.311 Q81.9019 526.033 81.9019 520.208 Q81.9019 516.834 81.0744 513.683 Q80.2469 510.5 78.5918 507.381 L84.1299 507.381 Q85.4667 510.532 86.167 513.842 Q86.8672 517.153 86.8672 520.558 Q86.8672 529.088 81.9019 534.085 Q76.9367 539.051 68.4703 539.051 Q59.7174 539.051 54.5931 534.34 Q49.4368 529.597 49.4368 521.577 Q49.4368 514.383 54.0838 510.214 Q58.6989 506.013 66.6561 506.013 M64.9373 511.869 Q60.1312 511.933 57.2666 514.574 Q54.4021 517.184 54.4021 521.513 Q54.4021 526.415 57.1712 529.375 Q59.9402 532.303 64.9692 532.749 L64.9373 511.869 Z" fill="#000000" fill-rule="nonzero" fill-opacity="1" /><path clip-path="url(#clip990)" d="M57.1393 468.646 Q53.1926 466.45 51.3147 463.394 Q49.4368 460.339 49.4368 456.201 Q49.4368 450.631 53.3517 447.607 Q57.2348 444.583 64.4281 444.583 L85.9442 444.583 L85.9442 450.472 L64.619 450.472 Q59.4946 450.472 57.012 452.286 Q54.5294 454.1 54.5294 457.824 Q54.5294 462.376 57.5531 465.017 Q60.5768 467.659 65.7967 467.659 L85.9442 467.659 L85.9442 473.547 L64.619 473.547 Q59.4628 473.547 57.012 475.362 Q54.5294 477.176 54.5294 480.963 Q54.5294 485.451 57.5849 488.093 Q60.6086 490.735 65.7967 490.735 L85.9442 490.735 L85.9442 496.623 L50.2962 496.623 L50.2962 490.735 L55.8344 490.735 Q52.556 488.73 50.9964 485.929 Q49.4368 483.128 49.4368 479.277 Q49.4368 475.394 51.4102 472.688 Q53.3836 469.951 57.1393 468.646 Z" fill="#000000" fill-rule="nonzero" fill-opacity="1" /><path clip-path="url(#clip990)" d="M645.143 12.096 L653.326 12.096 L653.326 36.8875 L683.06 36.8875 L683.06 12.096 L691.243 12.096 L691.243 72.576 L683.06 72.576 L683.06 43.7741 L653.326 43.7741 L653.326 72.576 L645.143 72.576 L645.143 12.096 Z" fill="#000000" fill-rule="nonzero" fill-opacity="1" /><path clip-path="url(#clip990)" d="M707.203 27.2059 L714.657 27.2059 L714.657 72.576 L707.203 72.576 L707.203 27.2059 M707.203 9.54393 L714.657 9.54393 L714.657 18.9825 L707.203 18.9825 L707.203 9.54393 Z" fill="#000000" fill-rule="nonzero" fill-opacity="1" /><path clip-path="url(#clip990)" d="M759.176 28.5427 L759.176 35.5912 Q756.017 33.9709 752.614 33.1607 Q749.211 32.3505 745.565 32.3505 Q740.016 32.3505 737.221 34.0519 Q734.466 35.7533 734.466 39.156 Q734.466 41.7486 736.451 43.2475 Q738.436 44.7058 744.431 46.0426 L746.983 46.6097 Q754.923 48.3111 758.245 51.4303 Q761.607 54.509 761.607 60.0587 Q761.607 66.3781 756.584 70.0644 Q751.601 73.7508 742.851 73.7508 Q739.205 73.7508 735.236 73.0216 Q731.306 72.3329 726.931 70.9151 L726.931 63.2184 Q731.063 65.3654 735.074 66.4591 Q739.084 67.5124 743.013 67.5124 Q748.28 67.5124 751.115 65.73 Q753.951 63.9071 753.951 60.6258 Q753.951 57.5877 751.885 55.9673 Q749.859 54.3469 742.932 52.8481 L740.34 52.2405 Q733.413 50.7821 730.334 47.7845 Q727.255 44.7463 727.255 39.4801 Q727.255 33.0797 731.792 29.5959 Q736.329 26.1121 744.674 26.1121 Q748.806 26.1121 752.452 26.7198 Q756.098 27.3274 759.176 28.5427 Z" fill="#000000" fill-rule="nonzero" fill-opacity="1" /><path clip-path="url(#clip990)" d="M780.849 14.324 L780.849 27.2059 L796.202 27.2059 L796.202 32.9987 L780.849 32.9987 L780.849 57.6282 Q780.849 63.1779 782.348 64.7578 Q783.887 66.3376 788.545 66.3376 L796.202 66.3376 L796.202 72.576 L788.545 72.576 Q779.917 72.576 776.636 69.3758 Q773.355 66.1351 773.355 57.6282 L773.355 32.9987 L767.886 32.9987 L767.886 27.2059 L773.355 27.2059 L773.355 14.324 L780.849 14.324 Z" fill="#000000" fill-rule="nonzero" fill-opacity="1" /><path clip-path="url(#clip990)" d="M823.586 32.4315 Q817.59 32.4315 814.107 37.1306 Q810.623 41.7891 810.623 49.9314 Q810.623 58.0738 814.066 62.7728 Q817.55 67.4314 823.586 67.4314 Q829.541 67.4314 833.024 62.7323 Q836.508 58.0333 836.508 49.9314 Q836.508 41.8701 833.024 37.1711 Q829.541 32.4315 823.586 32.4315 M823.586 26.1121 Q833.308 26.1121 838.858 32.4315 Q844.407 38.7509 844.407 49.9314 Q844.407 61.0714 838.858 67.4314 Q833.308 73.7508 823.586 73.7508 Q813.823 73.7508 808.273 67.4314 Q802.764 61.0714 802.764 49.9314 Q802.764 38.7509 808.273 32.4315 Q813.823 26.1121 823.586 26.1121 Z" fill="#000000" fill-rule="nonzero" fill-opacity="1" /><path clip-path="url(#clip990)" d="M886.618 49.3643 Q886.618 41.2625 883.256 36.8065 Q879.934 32.3505 873.898 32.3505 Q867.903 32.3505 864.54 36.8065 Q861.219 41.2625 861.219 49.3643 Q861.219 57.4256 864.54 61.8816 Q867.903 66.3376 873.898 66.3376 Q879.934 66.3376 883.256 61.8816 Q886.618 57.4256 886.618 49.3643 M894.072 66.9452 Q894.072 78.5308 888.927 84.1616 Q883.782 89.8329 873.169 89.8329 Q869.24 89.8329 865.756 89.2252 Q862.272 88.6581 858.991 87.4428 L858.991 80.1917 Q862.272 81.9741 865.472 82.8248 Q868.672 83.6755 871.994 83.6755 Q879.326 83.6755 882.972 79.8271 Q886.618 76.0193 886.618 68.282 L886.618 64.5957 Q884.309 68.6061 880.704 70.5911 Q877.098 72.576 872.075 72.576 Q863.73 72.576 858.626 66.2161 Q853.522 59.8562 853.522 49.3643 Q853.522 38.832 858.626 32.472 Q863.73 26.1121 872.075 26.1121 Q877.098 26.1121 880.704 28.0971 Q884.309 30.082 886.618 34.0924 L886.618 27.2059 L894.072 27.2059 L894.072 66.9452 Z" fill="#000000" fill-rule="nonzero" fill-opacity="1" /><path clip-path="url(#clip990)" d="M935.715 34.1734 Q934.459 33.4443 932.96 33.1202 Q931.502 32.7556 929.72 32.7556 Q923.4 32.7556 919.997 36.8875 Q916.635 40.9789 916.635 48.6757 L916.635 72.576 L909.141 72.576 L909.141 27.2059 L916.635 27.2059 L916.635 34.2544 Q918.985 30.1225 922.752 28.1376 Q926.519 26.1121 931.907 26.1121 Q932.677 26.1121 933.608 26.2337 Q934.54 26.3147 935.674 26.5172 L935.715 34.1734 Z" fill="#000000" fill-rule="nonzero" fill-opacity="1" /><path clip-path="url(#clip990)" d="M964.152 49.7694 Q955.119 49.7694 951.635 51.8354 Q948.151 53.9013 948.151 58.8839 Q948.151 62.8538 950.744 65.2034 Q953.377 67.5124 957.873 67.5124 Q964.071 67.5124 967.798 63.1374 Q971.565 58.7219 971.565 51.4303 L971.565 49.7694 L964.152 49.7694 M979.019 46.6907 L979.019 72.576 L971.565 72.576 L971.565 65.6895 Q969.013 69.8214 965.205 71.8063 Q961.398 73.7508 955.888 73.7508 Q948.921 73.7508 944.789 69.8619 Q940.697 65.9325 940.697 59.3701 Q940.697 51.7138 945.802 47.825 Q950.946 43.9361 961.114 43.9361 L971.565 43.9361 L971.565 43.2069 Q971.565 38.0623 968.163 35.2672 Q964.8 32.4315 958.683 32.4315 Q954.795 32.4315 951.108 33.3632 Q947.422 34.295 944.019 36.1584 L944.019 29.2718 Q948.111 27.692 951.959 26.9223 Q955.807 26.1121 959.453 26.1121 Q969.297 26.1121 974.158 31.2163 Q979.019 36.3204 979.019 46.6907 Z" fill="#000000" fill-rule="nonzero" fill-opacity="1" /><path clip-path="url(#clip990)" d="M1029.7 35.9153 Q1032.49 30.8922 1036.38 28.5022 Q1040.27 26.1121 1045.53 26.1121 Q1052.62 26.1121 1056.47 31.0947 Q1060.32 36.0368 1060.32 45.1919 L1060.32 72.576 L1052.83 72.576 L1052.83 45.4349 Q1052.83 38.913 1050.52 35.7533 Q1048.21 32.5936 1043.47 32.5936 Q1037.68 32.5936 1034.31 36.4419 Q1030.95 40.2903 1030.95 46.9338 L1030.95 72.576 L1023.46 72.576 L1023.46 45.4349 Q1023.46 38.8725 1021.15 35.7533 Q1018.84 32.5936 1014.02 32.5936 Q1008.31 32.5936 1004.94 36.4824 Q1001.58 40.3308 1001.58 46.9338 L1001.58 72.576 L994.088 72.576 L994.088 27.2059 L1001.58 27.2059 L1001.58 34.2544 Q1004.13 30.082 1007.7 28.0971 Q1011.26 26.1121 1016.17 26.1121 Q1021.11 26.1121 1024.55 28.6237 Q1028.03 31.1352 1029.7 35.9153 Z" fill="#000000" fill-rule="nonzero" fill-opacity="1" /><path clip-path="url(#clip990)" d="M1095.81 49.7694 Q1086.77 49.7694 1083.29 51.8354 Q1079.81 53.9013 1079.81 58.8839 Q1079.81 62.8538 1082.4 65.2034 Q1085.03 67.5124 1089.53 67.5124 Q1095.73 67.5124 1099.45 63.1374 Q1103.22 58.7219 1103.22 51.4303 L1103.22 49.7694 L1095.81 49.7694 M1110.67 46.6907 L1110.67 72.576 L1103.22 72.576 L1103.22 65.6895 Q1100.67 69.8214 1096.86 71.8063 Q1093.05 73.7508 1087.54 73.7508 Q1080.58 73.7508 1076.44 69.8619 Q1072.35 65.9325 1072.35 59.3701 Q1072.35 51.7138 1077.46 47.825 Q1082.6 43.9361 1092.77 43.9361 L1103.22 43.9361 L1103.22 43.2069 Q1103.22 38.0623 1099.82 35.2672 Q1096.45 32.4315 1090.34 32.4315 Q1086.45 32.4315 1082.76 33.3632 Q1079.08 34.295 1075.67 36.1584 L1075.67 29.2718 Q1079.76 27.692 1083.61 26.9223 Q1087.46 26.1121 1091.11 26.1121 Q1100.95 26.1121 1105.81 31.2163 Q1110.67 36.3204 1110.67 46.6907 Z" fill="#000000" fill-rule="nonzero" fill-opacity="1" /><path clip-path="url(#clip992)" d="M277.297 158.063 L277.297 1059.1 L620.503 1059.1 L620.503 158.063 L277.297 158.063 L277.297 158.063  Z" fill="#009af9" fill-rule="evenodd" fill-opacity="1"/>
<polyline clip-path="url(#clip992)" style="stroke:#000000; stroke-linecap:round; stroke-linejoin:round; stroke-width:4; stroke-opacity:1; fill:none" points="277.297,158.063 277.297,1059.1 620.503,1059.1 620.503,158.063 277.297,158.063 "/>
<path clip-path="url(#clip992)" d="M706.305 158.063 L706.305 1059.1 L1049.51 1059.1 L1049.51 158.063 L706.305 158.063 L706.305 158.063  Z" fill="#e26f46" fill-rule="evenodd" fill-opacity="1"/>
<polyline clip-path="url(#clip992)" style="stroke:#000000; stroke-linecap:round; stroke-linejoin:round; stroke-width:4; stroke-opacity:1; fill:none" points="706.305,158.063 706.305,1059.1 1049.51,1059.1 1049.51,158.063 706.305,158.063 "/>
<path clip-path="url(#clip992)" d="M1135.31 158.063 L1135.31 1059.1 L1478.52 1059.1 L1478.52 158.063 L1135.31 158.063 L1135.31 158.063  Z" fill="#3da44d" fill-rule="evenodd" fill-opacity="1"/>
<polyline clip-path="url(#clip992)" style="stroke:#000000; stroke-linecap:round; stroke-linejoin:round; stroke-width:4; stroke-opacity:1; fill:none" points="1135.31,158.063 1135.31,1059.1 1478.52,1059.1 1478.52,158.063 1135.31,158.063 "/>
<circle clip-path="url(#clip992)" style="fill:#009af9; stroke:none; fill-opacity:0" cx="448.9" cy="158.063" r="2"/>
<circle clip-path="url(#clip992)" style="fill:#e26f46; stroke:none; fill-opacity:0" cx="877.908" cy="158.063" r="2"/>
<circle clip-path="url(#clip992)" style="fill:#3da44d; stroke:none; fill-opacity:0" cx="1306.92" cy="158.063" r="2"/>
</svg>
